<?xml version="1.0" standalone="no"?>
<svg width="567.429" height="440.751" viewBox="0 0 567.429 440.751" xmlns="http://www.w3.org/2000/svg" shape-rendering="crispEdges">
<title>
canvas.svg
</title>
<desc>
Creator: ROOT Version 6.28/04
CreationDate: Mon May 29 08:19:34 2023</desc>
<defs>
</defs>
<rect x="0.5" y="0" width="566.929" height="440.251" fill="white"/>
<rect x="6.16929" y="4.40251" width="555.804" height="254.905" fill="white"/>
<rect x="56.1917" y="27.344" width="495.222" height="231.964" fill="white"/>
<rect x="56.1917" y="27.344" width="495.222" height="231.964" fill="none" stroke="black"/>
<rect x="56.1917" y="27.344" width="495.222" height="231.964" fill="white"/>
<rect x="56.1917" y="27.344" width="495.222" height="231.964" fill="none" stroke="black"/>
<path d="M56.1917,259.308h 495.222" fill="none" stroke="black"/>
<path d="M56.1917,252.494v 6.81361" fill="none" stroke="black"/>
<path d="M67.1966,255.901v 3.40681" fill="none" stroke="black"/>
<path d="M78.2015,255.901v 3.40681" fill="none" stroke="black"/>
<path d="M89.2064,255.901v 3.40681" fill="none" stroke="black"/>
<path d="M100.211,255.901v 3.40681" fill="none" stroke="black"/>
<path d="M111.216,252.494v 6.81361" fill="none" stroke="black"/>
<path d="M122.221,255.901v 3.40681" fill="none" stroke="black"/>
<path d="M133.226,255.901v 3.40681" fill="none" stroke="black"/>
<path d="M144.231,255.901v 3.40681" fill="none" stroke="black"/>
<path d="M155.236,255.901v 3.40681" fill="none" stroke="black"/>
<path d="M166.241,252.494v 6.81361" fill="none" stroke="black"/>
<path d="M177.246,255.901v 3.40681" fill="none" stroke="black"/>
<path d="M188.251,255.901v 3.40681" fill="none" stroke="black"/>
<path d="M199.256,255.901v 3.40681" fill="none" stroke="black"/>
<path d="M210.261,255.901v 3.40681" fill="none" stroke="black"/>
<path d="M221.266,252.494v 6.81361" fill="none" stroke="black"/>
<path d="M232.27,255.901v 3.40681" fill="none" stroke="black"/>
<path d="M243.275,255.901v 3.40681" fill="none" stroke="black"/>
<path d="M254.28,255.901v 3.40681" fill="none" stroke="black"/>
<path d="M265.285,255.901v 3.40681" fill="none" stroke="black"/>
<path d="M276.29,252.494v 6.81361" fill="none" stroke="black"/>
<path d="M287.295,255.901v 3.40681" fill="none" stroke="black"/>
<path d="M298.3,255.901v 3.40681" fill="none" stroke="black"/>
<path d="M309.305,255.901v 3.40681" fill="none" stroke="black"/>
<path d="M320.31,255.901v 3.40681" fill="none" stroke="black"/>
<path d="M331.315,252.494v 6.81361" fill="none" stroke="black"/>
<path d="M342.32,255.901v 3.40681" fill="none" stroke="black"/>
<path d="M353.325,255.901v 3.40681" fill="none" stroke="black"/>
<path d="M364.33,255.901v 3.40681" fill="none" stroke="black"/>
<path d="M375.334,255.901v 3.40681" fill="none" stroke="black"/>
<path d="M386.339,252.494v 6.81361" fill="none" stroke="black"/>
<path d="M397.344,255.901v 3.40681" fill="none" stroke="black"/>
<path d="M408.349,255.901v 3.40681" fill="none" stroke="black"/>
<path d="M419.354,255.901v 3.40681" fill="none" stroke="black"/>
<path d="M430.359,255.901v 3.40681" fill="none" stroke="black"/>
<path d="M441.364,252.494v 6.81361" fill="none" stroke="black"/>
<path d="M452.369,255.901v 3.40681" fill="none" stroke="black"/>
<path d="M463.374,255.901v 3.40681" fill="none" stroke="black"/>
<path d="M474.379,255.901v 3.40681" fill="none" stroke="black"/>
<path d="M485.384,255.901v 3.40681" fill="none" stroke="black"/>
<path d="M496.389,252.494v 6.81361" fill="none" stroke="black"/>
<path d="M507.394,255.901v 3.40681" fill="none" stroke="black"/>
<path d="M518.398,255.901v 3.40681" fill="none" stroke="black"/>
<path d="M529.403,255.901v 3.40681" fill="none" stroke="black"/>
<path d="M540.408,255.901v 3.40681" fill="none" stroke="black"/>
<path d="M551.413,252.494v 6.81361" fill="none" stroke="black"/>
<path d="M551.413,252.494v 6.81361" fill="none" stroke="black"/>
<text xml:space="preserve" x="47.6494" y="267.559" fill="black" font-size="8.68503" font-family="Helvetica">6.05</text>
<text xml:space="preserve" x="105.592" y="267.559" fill="black" font-size="8.68503" font-family="Helvetica">6.1</text>
<text xml:space="preserve" x="157.286" y="267.559" fill="black" font-size="8.68503" font-family="Helvetica">6.15</text>
<text xml:space="preserve" x="214.661" y="267.559" fill="black" font-size="8.68503" font-family="Helvetica">6.2</text>
<text xml:space="preserve" x="267.491" y="267.559" fill="black" font-size="8.68503" font-family="Helvetica">6.25</text>
<text xml:space="preserve" x="324.865" y="267.559" fill="black" font-size="8.68503" font-family="Helvetica">6.3</text>
<text xml:space="preserve" x="377.695" y="267.559" fill="black" font-size="8.68503" font-family="Helvetica">6.35</text>
<text xml:space="preserve" x="435.07" y="267.559" fill="black" font-size="8.68503" font-family="Helvetica">6.4</text>
<text xml:space="preserve" x="487.332" y="267.559" fill="black" font-size="8.68503" font-family="Helvetica">6.45</text>
<text xml:space="preserve" x="544.707" y="267.559" fill="black" font-size="8.68503" font-family="Helvetica">6.5</text>
<text xml:space="preserve" x="544.138" y="276.648" fill="black" font-size="8.68503" font-family="Helvetica">M</text>
<path d="M56.1917,259.308v -231.964" fill="none" stroke="black"/>
<path d="M71.3651,259.308h -15.1735" fill="none" stroke="black"/>
<path d="M63.7784,254.091h -7.58673" fill="none" stroke="black"/>
<path d="M63.7784,248.874h -7.58673" fill="none" stroke="black"/>
<path d="M63.7784,243.658h -7.58673" fill="none" stroke="black"/>
<path d="M63.7784,238.441h -7.58673" fill="none" stroke="black"/>
<path d="M71.3651,233.225h -15.1735" fill="none" stroke="black"/>
<path d="M63.7784,228.008h -7.58673" fill="none" stroke="black"/>
<path d="M63.7784,222.792h -7.58673" fill="none" stroke="black"/>
<path d="M63.7784,217.575h -7.58673" fill="none" stroke="black"/>
<path d="M63.7784,212.359h -7.58673" fill="none" stroke="black"/>
<path d="M71.3651,207.142h -15.1735" fill="none" stroke="black"/>
<path d="M63.7784,201.926h -7.58673" fill="none" stroke="black"/>
<path d="M63.7784,196.709h -7.58673" fill="none" stroke="black"/>
<path d="M63.7784,191.492h -7.58673" fill="none" stroke="black"/>
<path d="M63.7784,186.276h -7.58673" fill="none" stroke="black"/>
<path d="M71.3651,181.059h -15.1735" fill="none" stroke="black"/>
<path d="M63.7784,175.843h -7.58673" fill="none" stroke="black"/>
<path d="M63.7784,170.626h -7.58673" fill="none" stroke="black"/>
<path d="M63.7784,165.41h -7.58673" fill="none" stroke="black"/>
<path d="M63.7784,160.193h -7.58673" fill="none" stroke="black"/>
<path d="M71.3651,154.977h -15.1735" fill="none" stroke="black"/>
<path d="M63.7784,149.76h -7.58673" fill="none" stroke="black"/>
<path d="M63.7784,144.543h -7.58673" fill="none" stroke="black"/>
<path d="M63.7784,139.327h -7.58673" fill="none" stroke="black"/>
<path d="M63.7784,134.11h -7.58673" fill="none" stroke="black"/>
<path d="M71.3651,128.894h -15.1735" fill="none" stroke="black"/>
<path d="M63.7784,123.677h -7.58673" fill="none" stroke="black"/>
<path d="M63.7784,118.461h -7.58673" fill="none" stroke="black"/>
<path d="M63.7784,113.244h -7.58673" fill="none" stroke="black"/>
<path d="M63.7784,108.028h -7.58673" fill="none" stroke="black"/>
<path d="M71.3651,102.811h -15.1735" fill="none" stroke="black"/>
<path d="M63.7784,97.5945h -7.58673" fill="none" stroke="black"/>
<path d="M63.7784,92.378h -7.58673" fill="none" stroke="black"/>
<path d="M63.7784,87.1614h -7.58673" fill="none" stroke="black"/>
<path d="M63.7784,81.9448h -7.58673" fill="none" stroke="black"/>
<path d="M71.3651,76.7283h -15.1735" fill="none" stroke="black"/>
<path d="M63.7784,71.5117h -7.58673" fill="none" stroke="black"/>
<path d="M63.7784,66.2952h -7.58673" fill="none" stroke="black"/>
<path d="M63.7784,61.0786h -7.58673" fill="none" stroke="black"/>
<path d="M63.7784,55.8621h -7.58673" fill="none" stroke="black"/>
<path d="M71.3651,50.6455h -15.1735" fill="none" stroke="black"/>
<path d="M71.3651,50.6455h -15.1735" fill="none" stroke="black"/>
<path d="M63.7784,45.429h -7.58673" fill="none" stroke="black"/>
<path d="M63.7784,40.2124h -7.58673" fill="none" stroke="black"/>
<path d="M63.7784,34.9959h -7.58673" fill="none" stroke="black"/>
<path d="M63.7784,29.7793h -7.58673" fill="none" stroke="black"/>
<text xml:space="preserve" x="48.7855" y="262.446" fill="black" font-size="8.68503" font-family="Helvetica">0</text>
<text xml:space="preserve" x="44.241" y="236.315" fill="black" font-size="8.68503" font-family="Helvetica">10</text>
<text xml:space="preserve" x="44.241" y="210.184" fill="black" font-size="8.68503" font-family="Helvetica">20</text>
<text xml:space="preserve" x="44.241" y="184.053" fill="black" font-size="8.68503" font-family="Helvetica">30</text>
<text xml:space="preserve" x="44.241" y="157.922" fill="black" font-size="8.68503" font-family="Helvetica">40</text>
<text xml:space="preserve" x="44.241" y="131.791" fill="black" font-size="8.68503" font-family="Helvetica">50</text>
<text xml:space="preserve" x="44.241" y="105.66" fill="black" font-size="8.68503" font-family="Helvetica">60</text>
<text xml:space="preserve" x="44.241" y="80.0972" fill="black" font-size="8.68503" font-family="Helvetica">70</text>
<text xml:space="preserve" x="44.241" y="53.9662" fill="black" font-size="8.68503" font-family="Helvetica">80</text>
<g transform="rotate(-90,30.6075,55.6704)">
<text xml:space="preserve" x="30.6075" y="55.6704" fill="black" font-size="8.68503" font-family="Helvetica"> Events</text>
</g>
<path d="M60.3185,188.884h -4.12685" fill="none" stroke="black"/>
<path d="M56.1917,190.02v -2.27226" fill="none" stroke="black"/>
<path d="M60.3185,188.884h 4.12685" fill="none" stroke="black"/>
<path d="M64.4454,190.02v -2.27226" fill="none" stroke="black"/>
<path d="M60.3185,188.884v -16.3284" fill="none" stroke="black"/>
<path d="M59.1824,172.556h 2.27226" fill="none" stroke="black"/>
<path d="M60.3185,188.884v 13.4685" fill="none" stroke="black"/>
<path d="M59.1824,202.353h 2.27226" fill="none" stroke="black"/>
<path d="M68.5722,196.709h -4.12685" fill="none" stroke="black"/>
<path d="M64.4454,197.845v -2.27226" fill="none" stroke="black"/>
<path d="M68.5722,196.709h 4.12685" fill="none" stroke="black"/>
<path d="M72.6991,197.845v -2.27226" fill="none" stroke="black"/>
<path d="M68.5722,196.709v -15.5634" fill="none" stroke="black"/>
<path d="M67.4361,181.146h 2.27226" fill="none" stroke="black"/>
<path d="M68.5722,196.709v 12.6882" fill="none" stroke="black"/>
<path d="M67.4361,209.397h 2.27226" fill="none" stroke="black"/>
<path d="M76.8259,217.575h -4.12685" fill="none" stroke="black"/>
<path d="M72.6991,218.711v -2.27226" fill="none" stroke="black"/>
<path d="M76.8259,217.575h 4.12685" fill="none" stroke="black"/>
<path d="M80.9528,218.711v -2.27226" fill="none" stroke="black"/>
<path d="M76.8259,217.575v -13.258" fill="none" stroke="black"/>
<path d="M75.6898,204.317h 2.27226" fill="none" stroke="black"/>
<path d="M76.8259,217.575v 10.323" fill="none" stroke="black"/>
<path d="M75.6898,227.898h 2.27226" fill="none" stroke="black"/>
<path d="M85.0796,201.926h -4.12685" fill="none" stroke="black"/>
<path d="M80.9528,203.062v -2.27226" fill="none" stroke="black"/>
<path d="M85.0796,201.926h 4.12685" fill="none" stroke="black"/>
<path d="M89.2064,203.062v -2.27226" fill="none" stroke="black"/>
<path d="M85.0796,201.926v -15.0272" fill="none" stroke="black"/>
<path d="M83.9435,186.898h 2.27226" fill="none" stroke="black"/>
<path d="M85.0796,201.926v 12.1402" fill="none" stroke="black"/>
<path d="M83.9435,214.066h 2.27226" fill="none" stroke="black"/>
<path d="M93.3333,228.008h -4.12685" fill="none" stroke="black"/>
<path d="M89.2064,229.144v -2.27226" fill="none" stroke="black"/>
<path d="M93.3333,228.008h 4.12685" fill="none" stroke="black"/>
<path d="M97.4601,229.144v -2.27226" fill="none" stroke="black"/>
<path d="M93.3333,228.008v -11.8933" fill="none" stroke="black"/>
<path d="M92.1972,216.115h 2.27226" fill="none" stroke="black"/>
<path d="M93.3333,228.008v 8.90796" fill="none" stroke="black"/>
<path d="M92.1972,236.916h 2.27226" fill="none" stroke="black"/>
<path d="M101.587,220.183h -4.12685" fill="none" stroke="black"/>
<path d="M97.4601,221.32v -2.27226" fill="none" stroke="black"/>
<path d="M101.587,220.183h 4.12685" fill="none" stroke="black"/>
<path d="M105.714,221.32v -2.27226" fill="none" stroke="black"/>
<path d="M101.587,220.183v -12.9338" fill="none" stroke="black"/>
<path d="M100.451,207.25h 2.27226" fill="none" stroke="black"/>
<path d="M101.587,220.183v 9.98808" fill="none" stroke="black"/>
<path d="M100.451,230.172h 2.27226" fill="none" stroke="black"/>
<path d="M109.841,207.142h -4.12685" fill="none" stroke="black"/>
<path d="M105.714,208.278v -2.27226" fill="none" stroke="black"/>
<path d="M109.841,207.142h 4.12685" fill="none" stroke="black"/>
<path d="M113.968,208.278v -2.27226" fill="none" stroke="black"/>
<path d="M109.841,207.142v -14.4669" fill="none" stroke="black"/>
<path d="M108.705,192.675h 2.27226" fill="none" stroke="black"/>
<path d="M109.841,207.142v 11.5663" fill="none" stroke="black"/>
<path d="M108.705,218.708h 2.27226" fill="none" stroke="black"/>
<path d="M118.094,228.008h -4.12685" fill="none" stroke="black"/>
<path d="M113.968,229.144v -2.27226" fill="none" stroke="black"/>
<path d="M118.094,228.008h 4.12685" fill="none" stroke="black"/>
<path d="M122.221,229.144v -2.27226" fill="none" stroke="black"/>
<path d="M118.094,228.008v -11.8933" fill="none" stroke="black"/>
<path d="M116.958,216.115h 2.27226" fill="none" stroke="black"/>
<path d="M118.094,228.008v 8.90796" fill="none" stroke="black"/>
<path d="M116.958,236.916h 2.27226" fill="none" stroke="black"/>
<path d="M126.348,225.4h -4.12685" fill="none" stroke="black"/>
<path d="M122.221,226.536v -2.27226" fill="none" stroke="black"/>
<path d="M126.348,225.4h 4.12685" fill="none" stroke="black"/>
<path d="M130.475,226.536v -2.27226" fill="none" stroke="black"/>
<path d="M126.348,225.4v -12.2526" fill="none" stroke="black"/>
<path d="M125.212,213.147h 2.27226" fill="none" stroke="black"/>
<path d="M126.348,225.4v 9.28197" fill="none" stroke="black"/>
<path d="M125.212,234.682h 2.27226" fill="none" stroke="black"/>
<path d="M134.602,235.833h -4.12685" fill="none" stroke="black"/>
<path d="M130.475,236.969v -2.27226" fill="none" stroke="black"/>
<path d="M134.602,235.833h 4.12685" fill="none" stroke="black"/>
<path d="M138.729,236.969v -2.27226" fill="none" stroke="black"/>
<path d="M134.602,235.833v -10.7205" fill="none" stroke="black"/>
<path d="M133.466,225.113h 2.27226" fill="none" stroke="black"/>
<path d="M134.602,235.833v 7.67736" fill="none" stroke="black"/>
<path d="M133.466,243.51h 2.27226" fill="none" stroke="black"/>
<path d="M142.855,220.183h -4.12685" fill="none" stroke="black"/>
<path d="M138.729,221.32v -2.27226" fill="none" stroke="black"/>
<path d="M142.855,220.183h 4.12685" fill="none" stroke="black"/>
<path d="M146.982,221.32v -2.27226" fill="none" stroke="black"/>
<path d="M142.855,220.183v -12.9338" fill="none" stroke="black"/>
<path d="M141.719,207.25h 2.27226" fill="none" stroke="black"/>
<path d="M142.855,220.183v 9.98808" fill="none" stroke="black"/>
<path d="M141.719,230.172h 2.27226" fill="none" stroke="black"/>
<path d="M151.109,207.142h -4.12685" fill="none" stroke="black"/>
<path d="M146.982,208.278v -2.27226" fill="none" stroke="black"/>
<path d="M151.109,207.142h 4.12685" fill="none" stroke="black"/>
<path d="M155.236,208.278v -2.27226" fill="none" stroke="black"/>
<path d="M151.109,207.142v -14.4669" fill="none" stroke="black"/>
<path d="M149.973,192.675h 2.27226" fill="none" stroke="black"/>
<path d="M151.109,207.142v 11.5663" fill="none" stroke="black"/>
<path d="M149.973,218.708h 2.27226" fill="none" stroke="black"/>
<path d="M159.363,225.4h -4.12685" fill="none" stroke="black"/>
<path d="M155.236,226.536v -2.27226" fill="none" stroke="black"/>
<path d="M159.363,225.4h 4.12685" fill="none" stroke="black"/>
<path d="M163.49,226.536v -2.27226" fill="none" stroke="black"/>
<path d="M159.363,225.4v -12.2526" fill="none" stroke="black"/>
<path d="M158.227,213.147h 2.27226" fill="none" stroke="black"/>
<path d="M159.363,225.4v 9.28197" fill="none" stroke="black"/>
<path d="M158.227,234.682h 2.27226" fill="none" stroke="black"/>
<path d="M167.617,238.441h -4.12685" fill="none" stroke="black"/>
<path d="M163.49,239.578v -2.27226" fill="none" stroke="black"/>
<path d="M167.617,238.441h 4.12685" fill="none" stroke="black"/>
<path d="M171.743,239.578v -2.27226" fill="none" stroke="black"/>
<path d="M167.617,238.441v -10.29" fill="none" stroke="black"/>
<path d="M166.48,228.151h 2.27226" fill="none" stroke="black"/>
<path d="M167.617,238.441v 7.22071" fill="none" stroke="black"/>
<path d="M166.48,245.662h 2.27226" fill="none" stroke="black"/>
<path d="M175.87,238.441h -4.12685" fill="none" stroke="black"/>
<path d="M171.743,239.578v -2.27226" fill="none" stroke="black"/>
<path d="M175.87,238.441h 4.12685" fill="none" stroke="black"/>
<path d="M179.997,239.578v -2.27226" fill="none" stroke="black"/>
<path d="M175.87,238.441v -10.29" fill="none" stroke="black"/>
<path d="M174.734,228.151h 2.27226" fill="none" stroke="black"/>
<path d="M175.87,238.441v 7.22071" fill="none" stroke="black"/>
<path d="M174.734,245.662h 2.27226" fill="none" stroke="black"/>
<path d="M184.124,238.441h -4.12685" fill="none" stroke="black"/>
<path d="M179.997,239.578v -2.27226" fill="none" stroke="black"/>
<path d="M184.124,238.441h 4.12685" fill="none" stroke="black"/>
<path d="M188.251,239.578v -2.27226" fill="none" stroke="black"/>
<path d="M184.124,238.441v -10.29" fill="none" stroke="black"/>
<path d="M182.988,228.151h 2.27226" fill="none" stroke="black"/>
<path d="M184.124,238.441v 7.22071" fill="none" stroke="black"/>
<path d="M182.988,245.662h 2.27226" fill="none" stroke="black"/>
<path d="M192.378,230.617h -4.12685" fill="none" stroke="black"/>
<path d="M188.251,231.753v -2.27226" fill="none" stroke="black"/>
<path d="M192.378,230.617h 4.12685" fill="none" stroke="black"/>
<path d="M196.504,231.753v -2.27226" fill="none" stroke="black"/>
<path d="M192.378,230.617v -11.5195" fill="none" stroke="black"/>
<path d="M191.241,219.097h 2.27226" fill="none" stroke="black"/>
<path d="M192.378,230.617v 8.51753" fill="none" stroke="black"/>
<path d="M191.241,239.134h 2.27226" fill="none" stroke="black"/>
<path d="M200.631,233.225h -4.12685" fill="none" stroke="black"/>
<path d="M196.504,234.361v -2.27226" fill="none" stroke="black"/>
<path d="M200.631,233.225h 4.12685" fill="none" stroke="black"/>
<path d="M204.758,234.361v -2.27226" fill="none" stroke="black"/>
<path d="M200.631,233.225v -11.1294" fill="none" stroke="black"/>
<path d="M199.495,222.095h 2.27226" fill="none" stroke="black"/>
<path d="M200.631,233.225v 8.10833" fill="none" stroke="black"/>
<path d="M199.495,241.333h 2.27226" fill="none" stroke="black"/>
<path d="M208.885,233.225h -4.12685" fill="none" stroke="black"/>
<path d="M204.758,234.361v -2.27226" fill="none" stroke="black"/>
<path d="M208.885,233.225h 4.12685" fill="none" stroke="black"/>
<path d="M213.012,234.361v -2.27226" fill="none" stroke="black"/>
<path d="M208.885,233.225v -11.1294" fill="none" stroke="black"/>
<path d="M207.749,222.095h 2.27226" fill="none" stroke="black"/>
<path d="M208.885,233.225v 8.10833" fill="none" stroke="black"/>
<path d="M207.749,241.333h 2.27226" fill="none" stroke="black"/>
<path d="M217.139,228.008h -4.12685" fill="none" stroke="black"/>
<path d="M213.012,229.144v -2.27226" fill="none" stroke="black"/>
<path d="M217.139,228.008h 4.12685" fill="none" stroke="black"/>
<path d="M221.266,229.144v -2.27226" fill="none" stroke="black"/>
<path d="M217.139,228.008v -11.8933" fill="none" stroke="black"/>
<path d="M216.003,216.115h 2.27226" fill="none" stroke="black"/>
<path d="M217.139,228.008v 8.90796" fill="none" stroke="black"/>
<path d="M216.003,236.916h 2.27226" fill="none" stroke="black"/>
<path d="M225.392,228.008h -4.12685" fill="none" stroke="black"/>
<path d="M221.266,229.144v -2.27226" fill="none" stroke="black"/>
<path d="M225.392,228.008h 4.12685" fill="none" stroke="black"/>
<path d="M229.519,229.144v -2.27226" fill="none" stroke="black"/>
<path d="M225.392,228.008v -11.8933" fill="none" stroke="black"/>
<path d="M224.256,216.115h 2.27226" fill="none" stroke="black"/>
<path d="M225.392,228.008v 8.90796" fill="none" stroke="black"/>
<path d="M224.256,236.916h 2.27226" fill="none" stroke="black"/>
<path d="M233.646,217.575h -4.12685" fill="none" stroke="black"/>
<path d="M229.519,218.711v -2.27226" fill="none" stroke="black"/>
<path d="M233.646,217.575h 4.12685" fill="none" stroke="black"/>
<path d="M237.773,218.711v -2.27226" fill="none" stroke="black"/>
<path d="M233.646,217.575v -13.258" fill="none" stroke="black"/>
<path d="M232.51,204.317h 2.27226" fill="none" stroke="black"/>
<path d="M233.646,217.575v 10.323" fill="none" stroke="black"/>
<path d="M232.51,227.898h 2.27226" fill="none" stroke="black"/>
<path d="M241.9,196.709h -4.12685" fill="none" stroke="black"/>
<path d="M237.773,197.845v -2.27226" fill="none" stroke="black"/>
<path d="M241.9,196.709h 4.12685" fill="none" stroke="black"/>
<path d="M246.027,197.845v -2.27226" fill="none" stroke="black"/>
<path d="M241.9,196.709v -15.5634" fill="none" stroke="black"/>
<path d="M240.764,181.146h 2.27226" fill="none" stroke="black"/>
<path d="M241.9,196.709v 12.6882" fill="none" stroke="black"/>
<path d="M240.764,209.397h 2.27226" fill="none" stroke="black"/>
<path d="M250.153,207.142h -4.12685" fill="none" stroke="black"/>
<path d="M246.027,208.278v -2.27226" fill="none" stroke="black"/>
<path d="M250.153,207.142h 4.12685" fill="none" stroke="black"/>
<path d="M254.28,208.278v -2.27226" fill="none" stroke="black"/>
<path d="M250.153,207.142v -14.4669" fill="none" stroke="black"/>
<path d="M249.017,192.675h 2.27226" fill="none" stroke="black"/>
<path d="M250.153,207.142v 11.5663" fill="none" stroke="black"/>
<path d="M249.017,218.708h 2.27226" fill="none" stroke="black"/>
<path d="M258.407,186.276h -4.12685" fill="none" stroke="black"/>
<path d="M254.28,187.412v -2.27226" fill="none" stroke="black"/>
<path d="M258.407,186.276h 4.12685" fill="none" stroke="black"/>
<path d="M262.534,187.412v -2.27226" fill="none" stroke="black"/>
<path d="M258.407,186.276v -16.5741" fill="none" stroke="black"/>
<path d="M257.271,169.702h 2.27226" fill="none" stroke="black"/>
<path d="M258.407,186.276v 13.7188" fill="none" stroke="black"/>
<path d="M257.271,199.995h 2.27226" fill="none" stroke="black"/>
<path d="M266.661,154.977h -4.12685" fill="none" stroke="black"/>
<path d="M262.534,156.113v -2.27226" fill="none" stroke="black"/>
<path d="M266.661,154.977h 4.12685" fill="none" stroke="black"/>
<path d="M270.788,156.113v -2.27226" fill="none" stroke="black"/>
<path d="M266.661,154.977v -19.2419" fill="none" stroke="black"/>
<path d="M265.525,135.735h 2.27226" fill="none" stroke="black"/>
<path d="M266.661,154.977v 16.4269" fill="none" stroke="black"/>
<path d="M265.525,171.403h 2.27226" fill="none" stroke="black"/>
<path d="M274.915,123.677h -4.12685" fill="none" stroke="black"/>
<path d="M270.788,124.813v -2.27226" fill="none" stroke="black"/>
<path d="M274.915,123.677h 4.12685" fill="none" stroke="black"/>
<path d="M279.041,124.813v -2.27226" fill="none" stroke="black"/>
<path d="M274.915,123.677v -21.5374" fill="none" stroke="black"/>
<path d="M273.778,102.14h 2.27226" fill="none" stroke="black"/>
<path d="M274.915,123.677v 18.7479" fill="none" stroke="black"/>
<path d="M273.778,142.425h 2.27226" fill="none" stroke="black"/>
<path d="M283.168,113.244h -4.12685" fill="none" stroke="black"/>
<path d="M279.041,114.38v -2.27226" fill="none" stroke="black"/>
<path d="M283.168,113.244h 4.12685" fill="none" stroke="black"/>
<path d="M287.295,114.38v -2.27226" fill="none" stroke="black"/>
<path d="M283.168,113.244v -22.2431" fill="none" stroke="black"/>
<path d="M282.032,91.0011h 2.27226" fill="none" stroke="black"/>
<path d="M283.168,113.244v 19.4601" fill="none" stroke="black"/>
<path d="M282.032,132.704h 2.27226" fill="none" stroke="black"/>
<path d="M291.422,66.2952h -4.12685" fill="none" stroke="black"/>
<path d="M287.295,67.4313v -2.27226" fill="none" stroke="black"/>
<path d="M291.422,66.2952h 4.12685" fill="none" stroke="black"/>
<path d="M295.549,67.4313v -2.27226" fill="none" stroke="black"/>
<path d="M291.422,66.2952v -25.1467" fill="none" stroke="black"/>
<path d="M290.286,41.1485h 2.27226" fill="none" stroke="black"/>
<path d="M291.422,66.2952v 22.3864" fill="none" stroke="black"/>
<path d="M290.286,88.6816h 2.27226" fill="none" stroke="black"/>
<path d="M299.676,63.6869h -4.12685" fill="none" stroke="black"/>
<path d="M295.549,64.8231v -2.27226" fill="none" stroke="black"/>
<path d="M299.676,63.6869h 4.12685" fill="none" stroke="black"/>
<path d="M303.802,64.8231v -2.27226" fill="none" stroke="black"/>
<path d="M299.676,63.6869v -25.2971" fill="none" stroke="black"/>
<path d="M298.539,38.3899h 2.27226" fill="none" stroke="black"/>
<path d="M299.676,63.6869v 22.5379" fill="none" stroke="black"/>
<path d="M298.539,86.2248h 2.27226" fill="none" stroke="black"/>
<path d="M307.929,71.5117h -4.12685" fill="none" stroke="black"/>
<path d="M303.802,72.6479v -2.27226" fill="none" stroke="black"/>
<path d="M307.929,71.5117h 4.12685" fill="none" stroke="black"/>
<path d="M312.056,72.6479v -2.27226" fill="none" stroke="black"/>
<path d="M307.929,71.5117v -24.8428" fill="none" stroke="black"/>
<path d="M306.793,46.669h 2.27226" fill="none" stroke="black"/>
<path d="M307.929,71.5117v 22.0804" fill="none" stroke="black"/>
<path d="M306.793,93.5922h 2.27226" fill="none" stroke="black"/>
<path d="M316.183,92.378h -4.12685" fill="none" stroke="black"/>
<path d="M312.056,93.5141v -2.27226" fill="none" stroke="black"/>
<path d="M316.183,92.378h 4.12685" fill="none" stroke="black"/>
<path d="M320.31,93.5141v -2.27226" fill="none" stroke="black"/>
<path d="M316.183,92.378v -23.5832" fill="none" stroke="black"/>
<path d="M315.047,68.7947h 2.27226" fill="none" stroke="black"/>
<path d="M316.183,92.378v 20.8115" fill="none" stroke="black"/>
<path d="M315.047,113.189h 2.27226" fill="none" stroke="black"/>
<path d="M324.437,147.152h -4.12685" fill="none" stroke="black"/>
<path d="M320.31,148.288v -2.27226" fill="none" stroke="black"/>
<path d="M324.437,147.152h 4.12685" fill="none" stroke="black"/>
<path d="M328.564,148.288v -2.27226" fill="none" stroke="black"/>
<path d="M324.437,147.152v -19.8445" fill="none" stroke="black"/>
<path d="M323.301,127.307h 2.27226" fill="none" stroke="black"/>
<path d="M324.437,147.152v 17.0368" fill="none" stroke="black"/>
<path d="M323.301,164.189h 2.27226" fill="none" stroke="black"/>
<path d="M332.69,160.193h -4.12685" fill="none" stroke="black"/>
<path d="M328.564,161.329v -2.27226" fill="none" stroke="black"/>
<path d="M332.69,160.193h 4.12685" fill="none" stroke="black"/>
<path d="M336.817,161.329v -2.27226" fill="none" stroke="black"/>
<path d="M332.69,160.193v -18.8278" fill="none" stroke="black"/>
<path d="M331.554,141.365h 2.27226" fill="none" stroke="black"/>
<path d="M332.69,160.193v 16.0074" fill="none" stroke="black"/>
<path d="M331.554,176.201h 2.27226" fill="none" stroke="black"/>
<path d="M340.944,194.101h -4.12685" fill="none" stroke="black"/>
<path d="M336.817,195.237v -2.27226" fill="none" stroke="black"/>
<path d="M340.944,194.101h 4.12685" fill="none" stroke="black"/>
<path d="M345.071,195.237v -2.27226" fill="none" stroke="black"/>
<path d="M340.944,194.101v -15.8233" fill="none" stroke="black"/>
<path d="M339.808,178.277h 2.27226" fill="none" stroke="black"/>
<path d="M340.944,194.101v 12.9536" fill="none" stroke="black"/>
<path d="M339.808,207.054h 2.27226" fill="none" stroke="black"/>
<path d="M349.198,222.792h -4.12685" fill="none" stroke="black"/>
<path d="M345.071,223.928v -2.27226" fill="none" stroke="black"/>
<path d="M349.198,222.792h 4.12685" fill="none" stroke="black"/>
<path d="M353.325,223.928v -2.27226" fill="none" stroke="black"/>
<path d="M349.198,222.792v -12.599" fill="none" stroke="black"/>
<path d="M348.062,210.193h 2.27226" fill="none" stroke="black"/>
<path d="M349.198,222.792v 9.64149" fill="none" stroke="black"/>
<path d="M348.062,232.433h 2.27226" fill="none" stroke="black"/>
<path d="M357.451,220.183h -4.12685" fill="none" stroke="black"/>
<path d="M353.325,221.32v -2.27226" fill="none" stroke="black"/>
<path d="M357.451,220.183h 4.12685" fill="none" stroke="black"/>
<path d="M361.578,221.32v -2.27226" fill="none" stroke="black"/>
<path d="M357.451,220.183v -12.9338" fill="none" stroke="black"/>
<path d="M356.315,207.25h 2.27226" fill="none" stroke="black"/>
<path d="M357.451,220.183v 9.98808" fill="none" stroke="black"/>
<path d="M356.315,230.172h 2.27226" fill="none" stroke="black"/>
<path d="M365.705,220.183h -4.12685" fill="none" stroke="black"/>
<path d="M361.578,221.32v -2.27226" fill="none" stroke="black"/>
<path d="M365.705,220.183h 4.12685" fill="none" stroke="black"/>
<path d="M369.832,221.32v -2.27226" fill="none" stroke="black"/>
<path d="M365.705,220.183v -12.9338" fill="none" stroke="black"/>
<path d="M364.569,207.25h 2.27226" fill="none" stroke="black"/>
<path d="M365.705,220.183v 9.98808" fill="none" stroke="black"/>
<path d="M364.569,230.172h 2.27226" fill="none" stroke="black"/>
<path d="M373.959,241.05h -4.12685" fill="none" stroke="black"/>
<path d="M369.832,242.186v -2.27226" fill="none" stroke="black"/>
<path d="M373.959,241.05h 4.12685" fill="none" stroke="black"/>
<path d="M378.086,242.186v -2.27226" fill="none" stroke="black"/>
<path d="M373.959,241.05v -9.83393" fill="none" stroke="black"/>
<path d="M372.823,231.216h 2.27226" fill="none" stroke="black"/>
<path d="M373.959,241.05v 6.73319" fill="none" stroke="black"/>
<path d="M372.823,247.783h 2.27226" fill="none" stroke="black"/>
<path d="M382.213,230.617h -4.12685" fill="none" stroke="black"/>
<path d="M378.086,231.753v -2.27226" fill="none" stroke="black"/>
<path d="M382.213,230.617h 4.12685" fill="none" stroke="black"/>
<path d="M386.339,231.753v -2.27226" fill="none" stroke="black"/>
<path d="M382.213,230.617v -11.5195" fill="none" stroke="black"/>
<path d="M381.076,219.097h 2.27226" fill="none" stroke="black"/>
<path d="M382.213,230.617v 8.51753" fill="none" stroke="black"/>
<path d="M381.076,239.134h 2.27226" fill="none" stroke="black"/>
<path d="M390.466,235.833h -4.12685" fill="none" stroke="black"/>
<path d="M386.339,236.969v -2.27226" fill="none" stroke="black"/>
<path d="M390.466,235.833h 4.12685" fill="none" stroke="black"/>
<path d="M394.593,236.969v -2.27226" fill="none" stroke="black"/>
<path d="M390.466,235.833v -10.7205" fill="none" stroke="black"/>
<path d="M389.33,225.113h 2.27226" fill="none" stroke="black"/>
<path d="M390.466,235.833v 7.67736" fill="none" stroke="black"/>
<path d="M389.33,243.51h 2.27226" fill="none" stroke="black"/>
<path d="M398.72,251.483h -4.12685" fill="none" stroke="black"/>
<path d="M394.593,252.619v -2.27226" fill="none" stroke="black"/>
<path d="M398.72,251.483h 4.12685" fill="none" stroke="black"/>
<path d="M402.847,252.619v -2.27226" fill="none" stroke="black"/>
<path d="M398.72,251.483v -7.61143" fill="none" stroke="black"/>
<path d="M397.584,243.871h 2.27226" fill="none" stroke="black"/>
<path d="M398.72,251.483v 4.25854" fill="none" stroke="black"/>
<path d="M397.584,255.741h 2.27226" fill="none" stroke="black"/>
<path d="M406.974,248.874h -4.12685" fill="none" stroke="black"/>
<path d="M402.847,250.011v -2.27226" fill="none" stroke="black"/>
<path d="M406.974,248.874h 4.12685" fill="none" stroke="black"/>
<path d="M411.1,250.011v -2.27226" fill="none" stroke="black"/>
<path d="M406.974,248.874v -8.24933" fill="none" stroke="black"/>
<path d="M405.837,240.625h 2.27226" fill="none" stroke="black"/>
<path d="M406.974,248.874v 4.99312" fill="none" stroke="black"/>
<path d="M405.837,253.868h 2.27226" fill="none" stroke="black"/>
<path d="M415.227,246.266h -4.12685" fill="none" stroke="black"/>
<path d="M411.1,247.402v -2.27226" fill="none" stroke="black"/>
<path d="M415.227,246.266h 4.12685" fill="none" stroke="black"/>
<path d="M419.354,247.402v -2.27226" fill="none" stroke="black"/>
<path d="M415.227,246.266v -8.82242" fill="none" stroke="black"/>
<path d="M414.091,237.444h 2.27226" fill="none" stroke="black"/>
<path d="M415.227,246.266v 5.63307" fill="none" stroke="black"/>
<path d="M414.091,251.899h 2.27226" fill="none" stroke="black"/>
<path d="M423.481,243.658h -4.12685" fill="none" stroke="black"/>
<path d="M419.354,244.794v -2.27226" fill="none" stroke="black"/>
<path d="M423.481,243.658h 4.12685" fill="none" stroke="black"/>
<path d="M427.608,244.794v -2.27226" fill="none" stroke="black"/>
<path d="M423.481,243.658v -9.34713" fill="none" stroke="black"/>
<path d="M422.345,234.311h 2.27226" fill="none" stroke="black"/>
<path d="M423.481,243.658v 6.20752" fill="none" stroke="black"/>
<path d="M422.345,249.865h 2.27226" fill="none" stroke="black"/>
<path d="M431.735,254.091h -4.12685" fill="none" stroke="black"/>
<path d="M427.608,255.227v -2.27226" fill="none" stroke="black"/>
<path d="M431.735,254.091h 4.12685" fill="none" stroke="black"/>
<path d="M435.862,255.227v -2.27226" fill="none" stroke="black"/>
<path d="M431.735,254.091v -6.88026" fill="none" stroke="black"/>
<path d="M430.599,247.211h 2.27226" fill="none" stroke="black"/>
<path d="M431.735,254.091v 3.36941" fill="none" stroke="black"/>
<path d="M430.599,257.46h 2.27226" fill="none" stroke="black"/>
<path d="M439.988,248.874h -4.12685" fill="none" stroke="black"/>
<path d="M435.862,250.011v -2.27226" fill="none" stroke="black"/>
<path d="M439.988,248.874h 4.12685" fill="none" stroke="black"/>
<path d="M444.115,250.011v -2.27226" fill="none" stroke="black"/>
<path d="M439.988,248.874v -8.24933" fill="none" stroke="black"/>
<path d="M438.852,240.625h 2.27226" fill="none" stroke="black"/>
<path d="M439.988,248.874v 4.99312" fill="none" stroke="black"/>
<path d="M438.852,253.868h 2.27226" fill="none" stroke="black"/>
<path d="M448.242,248.874h -4.12685" fill="none" stroke="black"/>
<path d="M444.115,250.011v -2.27226" fill="none" stroke="black"/>
<path d="M448.242,248.874h 4.12685" fill="none" stroke="black"/>
<path d="M452.369,250.011v -2.27226" fill="none" stroke="black"/>
<path d="M448.242,248.874v -8.24933" fill="none" stroke="black"/>
<path d="M447.106,240.625h 2.27226" fill="none" stroke="black"/>
<path d="M448.242,248.874v 4.99312" fill="none" stroke="black"/>
<path d="M447.106,253.868h 2.27226" fill="none" stroke="black"/>
<path d="M456.496,241.05h -4.12685" fill="none" stroke="black"/>
<path d="M452.369,242.186v -2.27226" fill="none" stroke="black"/>
<path d="M456.496,241.05h 4.12685" fill="none" stroke="black"/>
<path d="M460.623,242.186v -2.27226" fill="none" stroke="black"/>
<path d="M456.496,241.05v -9.83393" fill="none" stroke="black"/>
<path d="M455.36,231.216h 2.27226" fill="none" stroke="black"/>
<path d="M456.496,241.05v 6.73319" fill="none" stroke="black"/>
<path d="M455.36,247.783h 2.27226" fill="none" stroke="black"/>
<path d="M464.749,259.308h -4.12685" fill="none" stroke="black"/>
<path d="M460.623,259.308v -1.13613" fill="none" stroke="black"/>
<path d="M464.749,259.308h 4.12685" fill="none" stroke="black"/>
<path d="M468.876,259.308v -1.13613" fill="none" stroke="black"/>
<path d="M464.749,259.308v -2.99397" fill="none" stroke="black"/>
<path d="M463.613,256.314h 2.27226" fill="none" stroke="black"/>
<path d="M473.003,248.874h -4.12685" fill="none" stroke="black"/>
<path d="M468.876,250.011v -2.27226" fill="none" stroke="black"/>
<path d="M473.003,248.874h 4.12685" fill="none" stroke="black"/>
<path d="M477.13,250.011v -2.27226" fill="none" stroke="black"/>
<path d="M473.003,248.874v -8.24933" fill="none" stroke="black"/>
<path d="M471.867,240.625h 2.27226" fill="none" stroke="black"/>
<path d="M473.003,248.874v 4.99312" fill="none" stroke="black"/>
<path d="M471.867,253.868h 2.27226" fill="none" stroke="black"/>
<path d="M481.257,248.874h -4.12685" fill="none" stroke="black"/>
<path d="M477.13,250.011v -2.27226" fill="none" stroke="black"/>
<path d="M481.257,248.874h 4.12685" fill="none" stroke="black"/>
<path d="M485.384,250.011v -2.27226" fill="none" stroke="black"/>
<path d="M481.257,248.874v -8.24933" fill="none" stroke="black"/>
<path d="M480.121,240.625h 2.27226" fill="none" stroke="black"/>
<path d="M481.257,248.874v 4.99312" fill="none" stroke="black"/>
<path d="M480.121,253.868h 2.27226" fill="none" stroke="black"/>
<path d="M489.511,254.091h -4.12685" fill="none" stroke="black"/>
<path d="M485.384,255.227v -2.27226" fill="none" stroke="black"/>
<path d="M489.511,254.091h 4.12685" fill="none" stroke="black"/>
<path d="M493.637,255.227v -2.27226" fill="none" stroke="black"/>
<path d="M489.511,254.091v -6.88026" fill="none" stroke="black"/>
<path d="M488.374,247.211h 2.27226" fill="none" stroke="black"/>
<path d="M489.511,254.091v 3.36941" fill="none" stroke="black"/>
<path d="M488.374,257.46h 2.27226" fill="none" stroke="black"/>
<path d="M497.764,251.483h -4.12685" fill="none" stroke="black"/>
<path d="M493.637,252.619v -2.27226" fill="none" stroke="black"/>
<path d="M497.764,251.483h 4.12685" fill="none" stroke="black"/>
<path d="M501.891,252.619v -2.27226" fill="none" stroke="black"/>
<path d="M497.764,251.483v -7.61143" fill="none" stroke="black"/>
<path d="M496.628,243.871h 2.27226" fill="none" stroke="black"/>
<path d="M497.764,251.483v 4.25854" fill="none" stroke="black"/>
<path d="M496.628,255.741h 2.27226" fill="none" stroke="black"/>
<path d="M506.018,243.658h -4.12685" fill="none" stroke="black"/>
<path d="M501.891,244.794v -2.27226" fill="none" stroke="black"/>
<path d="M506.018,243.658h 4.12685" fill="none" stroke="black"/>
<path d="M510.145,244.794v -2.27226" fill="none" stroke="black"/>
<path d="M506.018,243.658v -9.34713" fill="none" stroke="black"/>
<path d="M504.882,234.311h 2.27226" fill="none" stroke="black"/>
<path d="M506.018,243.658v 6.20752" fill="none" stroke="black"/>
<path d="M504.882,249.865h 2.27226" fill="none" stroke="black"/>
<path d="M514.272,256.699h -4.12685" fill="none" stroke="black"/>
<path d="M510.145,257.835v -2.27226" fill="none" stroke="black"/>
<path d="M514.272,256.699h 4.12685" fill="none" stroke="black"/>
<path d="M518.398,257.835v -2.27226" fill="none" stroke="black"/>
<path d="M514.272,256.699v -5.9978" fill="none" stroke="black"/>
<path d="M513.135,250.702h 2.27226" fill="none" stroke="black"/>
<path d="M514.272,256.699v 2.15769" fill="none" stroke="black"/>
<path d="M513.135,258.857h 2.27226" fill="none" stroke="black"/>
<path d="M522.525,256.699h -4.12685" fill="none" stroke="black"/>
<path d="M518.398,257.835v -2.27226" fill="none" stroke="black"/>
<path d="M522.525,256.699h 4.12685" fill="none" stroke="black"/>
<path d="M526.652,257.835v -2.27226" fill="none" stroke="black"/>
<path d="M522.525,256.699v -5.9978" fill="none" stroke="black"/>
<path d="M521.389,250.702h 2.27226" fill="none" stroke="black"/>
<path d="M522.525,256.699v 2.15769" fill="none" stroke="black"/>
<path d="M521.389,258.857h 2.27226" fill="none" stroke="black"/>
<path d="M530.779,256.699h -4.12685" fill="none" stroke="black"/>
<path d="M526.652,257.835v -2.27226" fill="none" stroke="black"/>
<path d="M530.779,256.699h 4.12685" fill="none" stroke="black"/>
<path d="M534.906,257.835v -2.27226" fill="none" stroke="black"/>
<path d="M530.779,256.699v -5.9978" fill="none" stroke="black"/>
<path d="M529.643,250.702h 2.27226" fill="none" stroke="black"/>
<path d="M530.779,256.699v 2.15769" fill="none" stroke="black"/>
<path d="M529.643,258.857h 2.27226" fill="none" stroke="black"/>
<path d="M539.033,248.874h -4.12685" fill="none" stroke="black"/>
<path d="M534.906,250.011v -2.27226" fill="none" stroke="black"/>
<path d="M539.033,248.874h 4.12685" fill="none" stroke="black"/>
<path d="M543.16,250.011v -2.27226" fill="none" stroke="black"/>
<path d="M539.033,248.874v -8.24933" fill="none" stroke="black"/>
<path d="M537.897,240.625h 2.27226" fill="none" stroke="black"/>
<path d="M539.033,248.874v 4.99312" fill="none" stroke="black"/>
<path d="M537.897,253.868h 2.27226" fill="none" stroke="black"/>
<path d="M547.286,248.874h -4.12685" fill="none" stroke="black"/>
<path d="M543.16,250.011v -2.27226" fill="none" stroke="black"/>
<path d="M547.286,248.874h 4.12685" fill="none" stroke="black"/>
<path d="M551.413,250.011v -2.27226" fill="none" stroke="black"/>
<path d="M547.286,248.874v -8.24933" fill="none" stroke="black"/>
<path d="M546.15,240.625h 2.27226" fill="none" stroke="black"/>
<path d="M547.286,248.874v 4.99312" fill="none" stroke="black"/>
<path d="M546.15,253.868h 2.27226" fill="none" stroke="black"/>
<g fill="black">
<circle cx="60.3185" cy="188.884" r="2.27226"/>
<circle cx="68.5722" cy="196.709" r="2.27226"/>
<circle cx="76.8259" cy="217.575" r="2.27226"/>
<circle cx="85.0796" cy="201.926" r="2.27226"/>
<circle cx="93.3333" cy="228.008" r="2.27226"/>
<circle cx="101.587" cy="220.183" r="2.27226"/>
<circle cx="109.841" cy="207.142" r="2.27226"/>
<circle cx="118.094" cy="228.008" r="2.27226"/>
<circle cx="126.348" cy="225.4" r="2.27226"/>
<circle cx="134.602" cy="235.833" r="2.27226"/>
<circle cx="142.855" cy="220.183" r="2.27226"/>
<circle cx="151.109" cy="207.142" r="2.27226"/>
<circle cx="159.363" cy="225.4" r="2.27226"/>
<circle cx="167.617" cy="238.441" r="2.27226"/>
<circle cx="175.87" cy="238.441" r="2.27226"/>
<circle cx="184.124" cy="238.441" r="2.27226"/>
<circle cx="192.378" cy="230.617" r="2.27226"/>
<circle cx="200.631" cy="233.225" r="2.27226"/>
<circle cx="208.885" cy="233.225" r="2.27226"/>
<circle cx="217.139" cy="228.008" r="2.27226"/>
<circle cx="225.392" cy="228.008" r="2.27226"/>
<circle cx="233.646" cy="217.575" r="2.27226"/>
<circle cx="241.9" cy="196.709" r="2.27226"/>
<circle cx="250.153" cy="207.142" r="2.27226"/>
<circle cx="258.407" cy="186.276" r="2.27226"/>
<circle cx="266.661" cy="154.977" r="2.27226"/>
<circle cx="274.915" cy="123.677" r="2.27226"/>
<circle cx="283.168" cy="113.244" r="2.27226"/>
<circle cx="291.422" cy="66.2952" r="2.27226"/>
<circle cx="299.676" cy="63.6869" r="2.27226"/>
<circle cx="307.929" cy="71.5117" r="2.27226"/>
<circle cx="316.183" cy="92.378" r="2.27226"/>
<circle cx="324.437" cy="147.152" r="2.27226"/>
<circle cx="332.69" cy="160.193" r="2.27226"/>
<circle cx="340.944" cy="194.101" r="2.27226"/>
<circle cx="349.198" cy="222.792" r="2.27226"/>
<circle cx="357.451" cy="220.183" r="2.27226"/>
<circle cx="365.705" cy="220.183" r="2.27226"/>
<circle cx="373.959" cy="241.05" r="2.27226"/>
<circle cx="382.213" cy="230.617" r="2.27226"/>
<circle cx="390.466" cy="235.833" r="2.27226"/>
<circle cx="398.72" cy="251.483" r="2.27226"/>
<circle cx="406.974" cy="248.874" r="2.27226"/>
<circle cx="415.227" cy="246.266" r="2.27226"/>
<circle cx="423.481" cy="243.658" r="2.27226"/>
<circle cx="431.735" cy="254.091" r="2.27226"/>
<circle cx="439.988" cy="248.874" r="2.27226"/>
<circle cx="448.242" cy="248.874" r="2.27226"/>
<circle cx="456.496" cy="241.05" r="2.27226"/>
<circle cx="464.749" cy="259.308" r="2.27226"/>
<circle cx="473.003" cy="248.874" r="2.27226"/>
<circle cx="481.257" cy="248.874" r="2.27226"/>
<circle cx="489.511" cy="254.091" r="2.27226"/>
<circle cx="497.764" cy="251.483" r="2.27226"/>
<circle cx="506.018" cy="243.658" r="2.27226"/>
<circle cx="514.272" cy="256.699" r="2.27226"/>
<circle cx="522.525" cy="256.699" r="2.27226"/>
<circle cx="530.779" cy="256.699" r="2.27226"/>
<circle cx="539.033" cy="248.874" r="2.27226"/>
<circle cx="547.286" cy="248.874" r="2.27226"/>
</g>
<path d="M56.1917,259.308z" fill="none" stroke="#660099" stroke-width="3" stroke-dasharray=" 3, 3"/>
<path d="M56.1917,259.308h 115.552l 8.25369, -0.0348304l 8.25369, -0.0728027l 8.25369, -0.199161l 8.25369, -0.49981l 8.25369, -1.14948l 4.12685, -0.99916l 4.12685, -1.42025l 4.12685, -1.97328l 4.12685, -2.679l 4.12685, -3.55277l 4.12685, -4.60038l
 4.12685, -5.81347l 2.06342, -3.4066l 2.06342, -3.75861l 2.06342, -4.12018l 2.06342, -4.48681l 2.06342, -4.85327l 2.06342, -5.21365l 2.06342, -5.56146l 2.06342, -5.88966l 4.12685, -12.6483l 4.12685, -13.5377l 4.12685, -14.0007l 4.12685, -13.9333l
 4.12685, -13.2609l 2.06342, -6.17856l 2.06342, -5.77083l 2.06342, -5.28613l 2.06342, -4.72882l 2.06342, -4.10491l 2.06342, -3.42197l 2.06342, -2.68897l 2.06342, -1.91611l 2.06342, -1.11457l 2.06342, -0.296238l 2.06342, 0.526568l 2.06342, 1.34142l
 2.06342, 2.1361l 2.06342, 2.89888l 2.06342, 3.61883l 2.06342, 4.28607l 2.06342, 4.89202l 2.06342, 5.42951l 2.06342, 5.89301l 2.06342, 6.27862l 4.12685, 13.3933l 4.12685, 13.9779l 4.12685, 13.9656l 4.12685, 13.4362l 4.12685, 12.4962l 2.06342,
 5.80007l 2.06342, 5.46565l 2.06342, 5.11363l 2.06342, 4.75091l 2.06342, 4.38384l 2.06342, 4.01813l 2.06342, 3.65882l 2.06342, 3.31019l 4.12685, 5.6343l 4.12685, 4.44324l 4.12685, 3.41986l 4.12685, 2.57025l 4.12685, 1.88702l 4.12685, 1.35381l
 4.12685, 0.949397l 8.25369, 1.08744l 8.25369, 0.469933l 8.25369, 0.186122l 8.25369, 0.0676287l 8.25369, 0.0320857h 123.805" fill="none" stroke="#660099" stroke-width="3" stroke-dasharray=" 3, 3"/>
<path d="M56.1917,209.738z" fill="none" stroke="#0099ff" stroke-width="3" stroke-dasharray=" 3, 3"/>
<path d="M56.1917,209.738l 8.25369, 1.33182l 8.25369, 1.31049l 8.25369, 1.28916l 8.25369, 1.26782l 8.25369, 1.24649l 8.25369, 1.22515l 8.25369, 1.20382l 8.25369, 1.18249l 8.25369, 1.16115l 8.25369, 1.13982l 8.25369, 1.11848l 8.25369, 1.09715l
 8.25369, 1.07582l 8.25369, 1.05448l 8.25369, 1.03315l 8.25369, 1.01181l 8.25369, 0.99048l 8.25369, 0.969146l 8.25369, 0.947812l 8.25369, 0.926478l 8.25369, 0.905144l 8.25369, 0.88381l 8.25369, 0.862476l 8.25369, 0.841142l 8.25369, 0.819808l 8.25369,
 0.798474l 8.25369, 0.777139l 8.25369, 0.755805l 8.25369, 0.734471l 8.25369, 0.713137l 8.25369, 0.691803l 8.25369, 0.670469l 8.25369, 0.649135l 8.25369, 0.627801l 8.25369, 0.606467l 8.25369, 0.585133l 8.25369, 0.563799l 8.25369, 0.542465l 8.25369,
 0.521131l 8.25369, 0.499797l 8.25369, 0.478463l 8.25369, 0.457129l 8.25369, 0.435795l 8.25369, 0.414461l 8.25369, 0.393127l 8.25369, 0.371793l 8.25369, 0.350459l 8.25369, 0.329125l 8.25369, 0.307791l 8.25369, 0.286457l 8.25369, 0.265123l 8.25369,
 0.243789l 8.25369, 0.222455l 8.25369, 0.201121l 8.25369, 0.179787l 8.25369, 0.158453l 8.25369, 0.137119l 8.25369, 0.115785l 8.25369, 0.094451l 8.25369, 0.073117" fill="none" stroke="#0099ff" stroke-width="3" stroke-dasharray=" 3, 3"/>
<path d="M56.1917,209.738z" fill="none" stroke="#ff6699" stroke-width="3"/>
<path d="M56.1917,209.738l 8.25369, 1.33182l 8.25369, 1.31049l 8.25369, 1.28916l 8.25369, 1.26782l 8.25369, 1.24649l 8.25369, 1.22515l 8.25369, 1.20382l 8.25369, 1.18248l 8.25369, 1.16115l 8.25369, 1.13979l 8.25369, 1.11835l 8.25369, 1.09659l
 8.25369, 1.07368l 8.25369, 1.04695l 8.25369, 1.00871l 8.25369, 0.939011l 8.25369, 0.791319l 8.25369, 0.469335l 8.25369, -0.201667l 4.12685, -0.533254l 4.12685, -0.959681l 4.12685, -1.51804l 4.12685, -2.22909l 4.12685, -3.1082l 4.12685, -4.16115l
 4.12685, -5.37957l 2.06342, -3.19165l 2.06342, -3.545l 2.06342, -3.9079l 2.06342, -4.27586l 2.06342, -4.64365l 2.06342, -5.00537l 4.12685, -11.0385l 4.12685, -12.241l 4.12685, -13.1358l 4.12685, -13.6041l 4.12685, -13.5421l 4.12685, -12.875l
 2.06342, -5.98761l 2.06342, -5.58121l 2.06342, -5.09784l 2.06342, -4.54187l 2.06342, -3.91929l 2.06342, -3.23768l 2.06342, -2.50602l 2.06342, -1.73449l 2.06342, -0.934283l 2.06342, -0.117287l 2.06342, 0.704185l 2.06342, 1.51771l 2.06342, 2.31105l
 2.06342, 3.07249l 2.06342, 3.79111l 2.06342, 4.45702l 2.06342, 5.06163l 2.06342, 5.5978l 2.06342, 6.05996l 2.06342, 6.44424l 4.12685, 13.7206l 4.12685, 14.2998l 4.12685, 14.2822l 4.12685, 13.7474l 4.12685, 12.8021l 4.12685, 11.5663l 2.06342,
 5.26191l 2.06342, 4.89786l 2.06342, 4.52946l 2.06342, 4.16242l 2.06342, 3.80177l 2.06342, 3.45181l 4.12685, 5.91353l 4.12685, 4.71714l 4.12685, 3.68843l 4.12685, 2.83348l 4.12685, 2.14492l 4.12685, 1.60638l 4.12685, 1.19663l 8.25369, 1.5659l
 8.25369, 0.927063l 8.25369, 0.621917l 8.25369, 0.48209l 8.25369, 0.41569l 8.25369, 0.378709l 8.25369, 0.352408l 8.25369, 0.32963l 8.25369, 0.307912l 8.25369, 0.286484l 8.25369, 0.265128l 8.25369, 0.24379l 8.25369, 0.222455l 8.25369, 0.201121l
 8.25369, 0.179787l 8.25369, 0.158453l 8.25369, 0.137119l 8.25369, 0.115785l 8.25369, 0.094451l 8.25369, 0.073117" fill="none" stroke="#ff6699" stroke-width="3"/>
<path d="M56.1917,259.308h 495.222" fill="none" stroke="black"/>
<path d="M56.1917,252.494v 6.81361" fill="none" stroke="black"/>
<path d="M67.1966,255.901v 3.40681" fill="none" stroke="black"/>
<path d="M78.2015,255.901v 3.40681" fill="none" stroke="black"/>
<path d="M89.2064,255.901v 3.40681" fill="none" stroke="black"/>
<path d="M100.211,255.901v 3.40681" fill="none" stroke="black"/>
<path d="M111.216,252.494v 6.81361" fill="none" stroke="black"/>
<path d="M122.221,255.901v 3.40681" fill="none" stroke="black"/>
<path d="M133.226,255.901v 3.40681" fill="none" stroke="black"/>
<path d="M144.231,255.901v 3.40681" fill="none" stroke="black"/>
<path d="M155.236,255.901v 3.40681" fill="none" stroke="black"/>
<path d="M166.241,252.494v 6.81361" fill="none" stroke="black"/>
<path d="M177.246,255.901v 3.40681" fill="none" stroke="black"/>
<path d="M188.251,255.901v 3.40681" fill="none" stroke="black"/>
<path d="M199.256,255.901v 3.40681" fill="none" stroke="black"/>
<path d="M210.261,255.901v 3.40681" fill="none" stroke="black"/>
<path d="M221.266,252.494v 6.81361" fill="none" stroke="black"/>
<path d="M232.27,255.901v 3.40681" fill="none" stroke="black"/>
<path d="M243.275,255.901v 3.40681" fill="none" stroke="black"/>
<path d="M254.28,255.901v 3.40681" fill="none" stroke="black"/>
<path d="M265.285,255.901v 3.40681" fill="none" stroke="black"/>
<path d="M276.29,252.494v 6.81361" fill="none" stroke="black"/>
<path d="M287.295,255.901v 3.40681" fill="none" stroke="black"/>
<path d="M298.3,255.901v 3.40681" fill="none" stroke="black"/>
<path d="M309.305,255.901v 3.40681" fill="none" stroke="black"/>
<path d="M320.31,255.901v 3.40681" fill="none" stroke="black"/>
<path d="M331.315,252.494v 6.81361" fill="none" stroke="black"/>
<path d="M342.32,255.901v 3.40681" fill="none" stroke="black"/>
<path d="M353.325,255.901v 3.40681" fill="none" stroke="black"/>
<path d="M364.33,255.901v 3.40681" fill="none" stroke="black"/>
<path d="M375.334,255.901v 3.40681" fill="none" stroke="black"/>
<path d="M386.339,252.494v 6.81361" fill="none" stroke="black"/>
<path d="M397.344,255.901v 3.40681" fill="none" stroke="black"/>
<path d="M408.349,255.901v 3.40681" fill="none" stroke="black"/>
<path d="M419.354,255.901v 3.40681" fill="none" stroke="black"/>
<path d="M430.359,255.901v 3.40681" fill="none" stroke="black"/>
<path d="M441.364,252.494v 6.81361" fill="none" stroke="black"/>
<path d="M452.369,255.901v 3.40681" fill="none" stroke="black"/>
<path d="M463.374,255.901v 3.40681" fill="none" stroke="black"/>
<path d="M474.379,255.901v 3.40681" fill="none" stroke="black"/>
<path d="M485.384,255.901v 3.40681" fill="none" stroke="black"/>
<path d="M496.389,252.494v 6.81361" fill="none" stroke="black"/>
<path d="M507.394,255.901v 3.40681" fill="none" stroke="black"/>
<path d="M518.398,255.901v 3.40681" fill="none" stroke="black"/>
<path d="M529.403,255.901v 3.40681" fill="none" stroke="black"/>
<path d="M540.408,255.901v 3.40681" fill="none" stroke="black"/>
<path d="M551.413,252.494v 6.81361" fill="none" stroke="black"/>
<path d="M551.413,252.494v 6.81361" fill="none" stroke="black"/>
<path d="M56.1917,259.308v -231.964" fill="none" stroke="black"/>
<path d="M71.3651,259.308h -15.1735" fill="none" stroke="black"/>
<path d="M63.7784,254.091h -7.58673" fill="none" stroke="black"/>
<path d="M63.7784,248.874h -7.58673" fill="none" stroke="black"/>
<path d="M63.7784,243.658h -7.58673" fill="none" stroke="black"/>
<path d="M63.7784,238.441h -7.58673" fill="none" stroke="black"/>
<path d="M71.3651,233.225h -15.1735" fill="none" stroke="black"/>
<path d="M63.7784,228.008h -7.58673" fill="none" stroke="black"/>
<path d="M63.7784,222.792h -7.58673" fill="none" stroke="black"/>
<path d="M63.7784,217.575h -7.58673" fill="none" stroke="black"/>
<path d="M63.7784,212.359h -7.58673" fill="none" stroke="black"/>
<path d="M71.3651,207.142h -15.1735" fill="none" stroke="black"/>
<path d="M63.7784,201.926h -7.58673" fill="none" stroke="black"/>
<path d="M63.7784,196.709h -7.58673" fill="none" stroke="black"/>
<path d="M63.7784,191.492h -7.58673" fill="none" stroke="black"/>
<path d="M63.7784,186.276h -7.58673" fill="none" stroke="black"/>
<path d="M71.3651,181.059h -15.1735" fill="none" stroke="black"/>
<path d="M63.7784,175.843h -7.58673" fill="none" stroke="black"/>
<path d="M63.7784,170.626h -7.58673" fill="none" stroke="black"/>
<path d="M63.7784,165.41h -7.58673" fill="none" stroke="black"/>
<path d="M63.7784,160.193h -7.58673" fill="none" stroke="black"/>
<path d="M71.3651,154.977h -15.1735" fill="none" stroke="black"/>
<path d="M63.7784,149.76h -7.58673" fill="none" stroke="black"/>
<path d="M63.7784,144.543h -7.58673" fill="none" stroke="black"/>
<path d="M63.7784,139.327h -7.58673" fill="none" stroke="black"/>
<path d="M63.7784,134.11h -7.58673" fill="none" stroke="black"/>
<path d="M71.3651,128.894h -15.1735" fill="none" stroke="black"/>
<path d="M63.7784,123.677h -7.58673" fill="none" stroke="black"/>
<path d="M63.7784,118.461h -7.58673" fill="none" stroke="black"/>
<path d="M63.7784,113.244h -7.58673" fill="none" stroke="black"/>
<path d="M63.7784,108.028h -7.58673" fill="none" stroke="black"/>
<path d="M71.3651,102.811h -15.1735" fill="none" stroke="black"/>
<path d="M63.7784,97.5945h -7.58673" fill="none" stroke="black"/>
<path d="M63.7784,92.378h -7.58673" fill="none" stroke="black"/>
<path d="M63.7784,87.1614h -7.58673" fill="none" stroke="black"/>
<path d="M63.7784,81.9448h -7.58673" fill="none" stroke="black"/>
<path d="M71.3651,76.7283h -15.1735" fill="none" stroke="black"/>
<path d="M63.7784,71.5117h -7.58673" fill="none" stroke="black"/>
<path d="M63.7784,66.2952h -7.58673" fill="none" stroke="black"/>
<path d="M63.7784,61.0786h -7.58673" fill="none" stroke="black"/>
<path d="M63.7784,55.8621h -7.58673" fill="none" stroke="black"/>
<path d="M71.3651,50.6455h -15.1735" fill="none" stroke="black"/>
<path d="M71.3651,50.6455h -15.1735" fill="none" stroke="black"/>
<path d="M63.7784,45.429h -7.58673" fill="none" stroke="black"/>
<path d="M63.7784,40.2124h -7.58673" fill="none" stroke="black"/>
<path d="M63.7784,34.9959h -7.58673" fill="none" stroke="black"/>
<path d="M63.7784,29.7793h -7.58673" fill="none" stroke="black"/>
<text xml:space="preserve" x="133.995" y="48.2855" fill="black" font-size="19.2086" font-family="Helvetica">Data</text>
<path d="M120.109,42.2778v -3.4631" fill="none" stroke="black"/>
<path d="M120.109,46.8223v 3.4631" fill="none" stroke="black"/>
<path d="M118.164,38.8147h 3.89063" fill="none" stroke="black"/>
<path d="M118.164,50.2854h 3.89063" fill="none" stroke="black"/>
<g fill="black">
<circle cx="120.109" cy="44.5501" r="2.27226"/>
</g>
<text xml:space="preserve" x="133.995" y="67.5998" fill="black" font-size="19.2086" font-family="Helvetica">Fit</text>
<path d="M110.383,63.6679h 19.4531" fill="none" stroke="#ff6699" stroke-width="3"/>
<text xml:space="preserve" x="133.995" y="86.914" fill="black" font-size="19.2086" font-family="Helvetica">Signal</text>
<path d="M110.383,82.7858h 19.4531" fill="none" stroke="#660099" stroke-width="3" stroke-dasharray=" 3, 3"/>
<text xml:space="preserve" x="133.995" y="105.66" fill="black" font-size="19.2086" font-family="Helvetica">Bkg</text>
<path d="M110.383,101.904h 19.4531" fill="none" stroke="#0099ff" stroke-width="3" stroke-dasharray=" 3, 3"/>
<text xml:space="preserve" x="494.717" y="64.1914" fill="black" font-size="14.5315" font-family="Helvetica"> 1.43 MeV</text>
<text xml:space="preserve" x="486.764" y="64.1914" fill="black" font-size="14.5315" font-family="Times">&#0177;</text>
<text xml:space="preserve" x="381.104" y="64.1914" fill="black" font-size="14.5315" font-family="Helvetica"> mass= 6270.99 </text>
<text xml:space="preserve" x="375.991" y="67.5998" fill="black" font-size="9.85431" font-family="Helvetica">c</text>
<text xml:space="preserve" x="366.902" y="64.1914" fill="black" font-size="14.5315" font-family="Helvetica">B</text>
<text xml:space="preserve" x="295.894" y="16.4739" fill="black" font-size="13.258" font-family="Helvetica"> meson</text>
<text xml:space="preserve" x="291.349" y="20.4503" fill="black" font-size="9.00534" font-family="Helvetica">c</text>
<text xml:space="preserve" x="229.43" y="16.4739" fill="black" font-size="13.258" font-family="Helvetica">Mass for B</text>
<rect x="6.16929" y="259.748" width="555.804" height="176.1" fill="white"/>
<rect x="56.1917" y="259.748" width="495.222" height="132.075" fill="white"/>
<rect x="56.1917" y="259.748" width="495.222" height="132.075" fill="none" stroke="black"/>
<rect x="56.1917" y="259.748" width="495.222" height="132.075" fill="white"/>
<rect x="56.1917" y="259.748" width="495.222" height="132.075" fill="none" stroke="black"/>
<path d="M56.1917,391.823h 495.222" fill="none" stroke="black"/>
<path d="M111.216,380.84v 10.9834" fill="none" stroke="black"/>
<path d="M133.226,386.331v 5.49169" fill="none" stroke="black"/>
<path d="M155.236,386.331v 5.49169" fill="none" stroke="black"/>
<path d="M177.246,386.331v 5.49169" fill="none" stroke="black"/>
<path d="M199.256,386.331v 5.49169" fill="none" stroke="black"/>
<path d="M221.266,380.84v 10.9834" fill="none" stroke="black"/>
<path d="M243.275,386.331v 5.49169" fill="none" stroke="black"/>
<path d="M265.285,386.331v 5.49169" fill="none" stroke="black"/>
<path d="M287.295,386.331v 5.49169" fill="none" stroke="black"/>
<path d="M309.305,386.331v 5.49169" fill="none" stroke="black"/>
<path d="M331.315,380.84v 10.9834" fill="none" stroke="black"/>
<path d="M353.325,386.331v 5.49169" fill="none" stroke="black"/>
<path d="M375.334,386.331v 5.49169" fill="none" stroke="black"/>
<path d="M397.344,386.331v 5.49169" fill="none" stroke="black"/>
<path d="M419.354,386.331v 5.49169" fill="none" stroke="black"/>
<path d="M441.364,380.84v 10.9834" fill="none" stroke="black"/>
<path d="M463.374,386.331v 5.49169" fill="none" stroke="black"/>
<path d="M485.384,386.331v 5.49169" fill="none" stroke="black"/>
<path d="M507.394,386.331v 5.49169" fill="none" stroke="black"/>
<path d="M529.403,386.331v 5.49169" fill="none" stroke="black"/>
<path d="M551.413,380.84v 10.9834" fill="none" stroke="black"/>
<path d="M111.216,380.84v 10.9834" fill="none" stroke="black"/>
<path d="M89.2064,386.331v 5.49169" fill="none" stroke="black"/>
<path d="M67.1966,386.331v 5.49169" fill="none" stroke="black"/>
<path d="M551.413,380.84v 10.9834" fill="none" stroke="black"/>
<text xml:space="preserve" x="104.456" y="401.054" fill="black" font-size="10.1936" font-family="Helvetica">6.1</text>
<text xml:space="preserve" x="214.093" y="401.054" fill="black" font-size="10.1936" font-family="Helvetica">6.2</text>
<text xml:space="preserve" x="324.297" y="401.054" fill="black" font-size="10.1936" font-family="Helvetica">6.3</text>
<text xml:space="preserve" x="434.502" y="401.054" fill="black" font-size="10.1936" font-family="Helvetica">6.4</text>
<text xml:space="preserve" x="544.138" y="401.054" fill="black" font-size="10.1936" font-family="Helvetica">6.5</text>
<text xml:space="preserve" x="299.87" y="416.392" fill="black" font-size="13.4248" font-family="Helvetica">)[Gev]</text>
<text xml:space="preserve" x="295.326" y="422.072" fill="black" font-size="9.11652" font-family="Helvetica">c</text>
<text xml:space="preserve" x="271.467" y="416.392" fill="black" font-size="13.4248" font-family="Helvetica">M(B</text>
<path d="M56.1917,391.823v -132.075" fill="none" stroke="black"/>
<path d="M68.6973,363.7h -12.5056" fill="none" stroke="black"/>
<path d="M62.4445,353.567h -6.2528" fill="none" stroke="black"/>
<path d="M62.4445,343.434h -6.2528" fill="none" stroke="black"/>
<path d="M62.4445,333.301h -6.2528" fill="none" stroke="black"/>
<path d="M68.6973,323.167h -12.5056" fill="none" stroke="black"/>
<path d="M62.4445,313.034h -6.2528" fill="none" stroke="black"/>
<path d="M62.4445,302.901h -6.2528" fill="none" stroke="black"/>
<path d="M62.4445,292.768h -6.2528" fill="none" stroke="black"/>
<path d="M68.6973,282.635h -12.5056" fill="none" stroke="black"/>
<path d="M68.6973,363.7h -12.5056" fill="none" stroke="black"/>
<path d="M62.4445,373.833h -6.2528" fill="none" stroke="black"/>
<path d="M62.4445,383.966h -6.2528" fill="none" stroke="black"/>
<path d="M68.6973,282.635h -12.5056" fill="none" stroke="black"/>
<path d="M62.4445,272.502h -6.2528" fill="none" stroke="black"/>
<path d="M62.4445,262.369h -6.2528" fill="none" stroke="black"/>
<text xml:space="preserve" x="48.2175" y="367.538" fill="black" font-size="10.1936" font-family="Helvetica">2</text>
<text xml:space="preserve" x="42.5368" y="367.538" fill="black" font-size="10.1936" font-family="Times">&#8722;</text>
<text xml:space="preserve" x="48.2175" y="326.638" fill="black" font-size="10.1936" font-family="Helvetica">0</text>
<text xml:space="preserve" x="48.2175" y="286.305" fill="black" font-size="10.1936" font-family="Helvetica">2</text>
<g transform="rotate(-90,35.152,297.666)">
<text xml:space="preserve" x="35.152" y="297.666" fill="black" font-size="13.4248" font-family="Times">&#0963;</text>
</g>
<g transform="rotate(-90,35.152,360.721)">
<text xml:space="preserve" x="35.152" y="360.721" fill="black" font-size="13.4248" font-family="Helvetica"> (Data-Fit)/</text>
</g>
<path d="M60.3185,290.787v -24.5694" fill="none" stroke="black"/>
<path d="M59.1824,266.217h 2.27226" fill="none" stroke="black"/>
<path d="M60.3185,290.787v 20.2661" fill="none" stroke="black"/>
<path d="M59.1824,311.053h 2.27226" fill="none" stroke="black"/>
<path d="M68.5722,299.183v -24.8584" fill="none" stroke="black"/>
<path d="M67.4361,274.325h 2.27226" fill="none" stroke="black"/>
<path d="M68.5722,299.183v 20.2661" fill="none" stroke="black"/>
<path d="M67.4361,319.449h 2.27226" fill="none" stroke="black"/>
<path d="M76.8259,330.123v -20.2661" fill="none" stroke="black"/>
<path d="M75.6898,309.857h 2.27226" fill="none" stroke="black"/>
<path d="M76.8259,330.123v 15.7797" fill="none" stroke="black"/>
<path d="M75.6898,345.903h 2.27226" fill="none" stroke="black"/>
<path d="M85.0796,302.505v -25.0855" fill="none" stroke="black"/>
<path d="M83.9435,277.419h 2.27226" fill="none" stroke="black"/>
<path d="M85.0796,302.505v 20.2661" fill="none" stroke="black"/>
<path d="M83.9435,322.771h 2.27226" fill="none" stroke="black"/>
<path d="M93.3333,344.378v -20.2661" fill="none" stroke="black"/>
<path d="M92.1972,324.112h 2.27226" fill="none" stroke="black"/>
<path d="M93.3333,344.378v 15.1792" fill="none" stroke="black"/>
<path d="M92.1972,359.558h 2.27226" fill="none" stroke="black"/>
<path d="M101.587,328.475v -20.2661" fill="none" stroke="black"/>
<path d="M100.451,308.209h 2.27226" fill="none" stroke="black"/>
<path d="M101.587,328.475v 15.6505" fill="none" stroke="black"/>
<path d="M100.451,344.125h 2.27226" fill="none" stroke="black"/>
<path d="M109.841,304.123v -25.3485" fill="none" stroke="black"/>
<path d="M108.705,278.775h 2.27226" fill="none" stroke="black"/>
<path d="M109.841,304.123v 20.2661" fill="none" stroke="black"/>
<path d="M108.705,324.39h 2.27226" fill="none" stroke="black"/>
<path d="M118.094,338.17v -20.2661" fill="none" stroke="black"/>
<path d="M116.958,317.904h 2.27226" fill="none" stroke="black"/>
<path d="M118.094,338.17v 15.1792" fill="none" stroke="black"/>
<path d="M116.958,353.349h 2.27226" fill="none" stroke="black"/>
<path d="M126.348,331.478v -20.2661" fill="none" stroke="black"/>
<path d="M125.212,311.211h 2.27226" fill="none" stroke="black"/>
<path d="M126.348,331.478v 15.3527" fill="none" stroke="black"/>
<path d="M125.212,346.83h 2.27226" fill="none" stroke="black"/>
<path d="M134.602,350.213v -20.2661" fill="none" stroke="black"/>
<path d="M133.466,329.947h 2.27226" fill="none" stroke="black"/>
<path d="M134.602,350.213v 14.5133" fill="none" stroke="black"/>
<path d="M133.466,364.726h 2.27226" fill="none" stroke="black"/>
<path d="M142.855,318.152v -26.243" fill="none" stroke="black"/>
<path d="M141.719,291.909h 2.27226" fill="none" stroke="black"/>
<path d="M142.855,318.152v 20.2661" fill="none" stroke="black"/>
<path d="M141.719,338.418h 2.27226" fill="none" stroke="black"/>
<path d="M151.109,294.045v -25.3485" fill="none" stroke="black"/>
<path d="M149.973,268.697h 2.27226" fill="none" stroke="black"/>
<path d="M151.109,294.045v 20.2661" fill="none" stroke="black"/>
<path d="M149.973,314.311h 2.27226" fill="none" stroke="black"/>
<path d="M159.363,324.081v -20.2661" fill="none" stroke="black"/>
<path d="M158.227,303.814h 2.27226" fill="none" stroke="black"/>
<path d="M159.363,324.081v 15.3527" fill="none" stroke="black"/>
<path d="M158.227,339.433h 2.27226" fill="none" stroke="black"/>
<path d="M167.617,347.851v -20.2661" fill="none" stroke="black"/>
<path d="M166.48,327.585h 2.27226" fill="none" stroke="black"/>
<path d="M167.617,347.851v 14.2212" fill="none" stroke="black"/>
<path d="M166.48,362.072h 2.27226" fill="none" stroke="black"/>
<path d="M175.87,345.827v -20.2661" fill="none" stroke="black"/>
<path d="M174.734,325.561h 2.27226" fill="none" stroke="black"/>
<path d="M175.87,345.827v 14.2212" fill="none" stroke="black"/>
<path d="M174.734,360.048h 2.27226" fill="none" stroke="black"/>
<path d="M184.124,343.909v -20.2661" fill="none" stroke="black"/>
<path d="M182.988,323.643h 2.27226" fill="none" stroke="black"/>
<path d="M184.124,343.909v 14.2212" fill="none" stroke="black"/>
<path d="M182.988,358.13h 2.27226" fill="none" stroke="black"/>
<path d="M192.378,326.407v -20.2661" fill="none" stroke="black"/>
<path d="M191.241,306.141h 2.27226" fill="none" stroke="black"/>
<path d="M192.378,326.407v 14.9848" fill="none" stroke="black"/>
<path d="M191.241,341.392h 2.27226" fill="none" stroke="black"/>
<path d="M200.631,330.122v -20.2661" fill="none" stroke="black"/>
<path d="M199.495,309.856h 2.27226" fill="none" stroke="black"/>
<path d="M200.631,330.122v 14.7649" fill="none" stroke="black"/>
<path d="M199.495,344.887h 2.27226" fill="none" stroke="black"/>
<path d="M208.885,329.879v -20.2661" fill="none" stroke="black"/>
<path d="M207.749,309.613h 2.27226" fill="none" stroke="black"/>
<path d="M208.885,329.879v 14.7649" fill="none" stroke="black"/>
<path d="M207.749,344.644h 2.27226" fill="none" stroke="black"/>
<path d="M217.139,321.369v -27.0579" fill="none" stroke="black"/>
<path d="M216.003,294.312h 2.27226" fill="none" stroke="black"/>
<path d="M217.139,321.369v 20.2661" fill="none" stroke="black"/>
<path d="M216.003,341.636h 2.27226" fill="none" stroke="black"/>
<path d="M225.392,326.164v -20.2661" fill="none" stroke="black"/>
<path d="M224.256,305.898h 2.27226" fill="none" stroke="black"/>
<path d="M225.392,326.164v 15.1792" fill="none" stroke="black"/>
<path d="M224.256,341.343h 2.27226" fill="none" stroke="black"/>
<path d="M233.646,316.784v -26.0281" fill="none" stroke="black"/>
<path d="M232.51,290.755h 2.27226" fill="none" stroke="black"/>
<path d="M233.646,316.784v 20.2661" fill="none" stroke="black"/>
<path d="M232.51,337.05h 2.27226" fill="none" stroke="black"/>
<path d="M241.9,299.935v -24.8584" fill="none" stroke="black"/>
<path d="M240.764,275.077h 2.27226" fill="none" stroke="black"/>
<path d="M241.9,299.935v 20.2661" fill="none" stroke="black"/>
<path d="M240.764,320.201h 2.27226" fill="none" stroke="black"/>
<path d="M250.153,338.28v -20.2661" fill="none" stroke="black"/>
<path d="M249.017,318.014h 2.27226" fill="none" stroke="black"/>
<path d="M250.153,338.28v 16.2028" fill="none" stroke="black"/>
<path d="M249.017,354.483h 2.27226" fill="none" stroke="black"/>
<path d="M258.407,336.171v -20.2661" fill="none" stroke="black"/>
<path d="M257.271,315.905h 2.27226" fill="none" stroke="black"/>
<path d="M258.407,336.171v 16.7747" fill="none" stroke="black"/>
<path d="M257.271,352.946h 2.27226" fill="none" stroke="black"/>
<path d="M266.661,327.937v -20.2661" fill="none" stroke="black"/>
<path d="M265.525,307.671h 2.27226" fill="none" stroke="black"/>
<path d="M266.661,327.937v 17.3013" fill="none" stroke="black"/>
<path d="M265.525,345.239h 2.27226" fill="none" stroke="black"/>
<path d="M274.915,323.254v -20.2661" fill="none" stroke="black"/>
<path d="M273.778,302.988h 2.27226" fill="none" stroke="black"/>
<path d="M274.915,323.254v 17.6412" fill="none" stroke="black"/>
<path d="M273.778,340.895h 2.27226" fill="none" stroke="black"/>
<path d="M283.168,335.839v -20.2661" fill="none" stroke="black"/>
<path d="M282.032,315.573h 2.27226" fill="none" stroke="black"/>
<path d="M283.168,335.839v 17.7305" fill="none" stroke="black"/>
<path d="M282.032,353.569h 2.27226" fill="none" stroke="black"/>
<path d="M291.422,308.293v -22.7649" fill="none" stroke="black"/>
<path d="M290.286,285.528h 2.27226" fill="none" stroke="black"/>
<path d="M291.422,308.293v 20.2661" fill="none" stroke="black"/>
<path d="M290.286,328.559h 2.27226" fill="none" stroke="black"/>
<path d="M299.676,310.746v -22.7472" fill="none" stroke="black"/>
<path d="M298.539,287.999h 2.27226" fill="none" stroke="black"/>
<path d="M299.676,310.746v 20.2661" fill="none" stroke="black"/>
<path d="M298.539,331.012h 2.27226" fill="none" stroke="black"/>
<path d="M307.929,310.761v -22.8015" fill="none" stroke="black"/>
<path d="M306.793,287.959h 2.27226" fill="none" stroke="black"/>
<path d="M307.929,310.761v 20.2661" fill="none" stroke="black"/>
<path d="M306.793,331.027h 2.27226" fill="none" stroke="black"/>
<path d="M316.183,312.098v -22.9652" fill="none" stroke="black"/>
<path d="M315.047,289.133h 2.27226" fill="none" stroke="black"/>
<path d="M316.183,312.098v 20.2661" fill="none" stroke="black"/>
<path d="M315.047,332.364h 2.27226" fill="none" stroke="black"/>
<path d="M324.437,340.92v -20.2661" fill="none" stroke="black"/>
<path d="M323.301,320.654h 2.27226" fill="none" stroke="black"/>
<path d="M324.437,340.92v 17.3988" fill="none" stroke="black"/>
<path d="M323.301,358.319h 2.27226" fill="none" stroke="black"/>
<path d="M332.69,325.451v -20.2661" fill="none" stroke="black"/>
<path d="M331.554,305.185h 2.27226" fill="none" stroke="black"/>
<path d="M332.69,325.451v 17.2303" fill="none" stroke="black"/>
<path d="M331.554,342.681h 2.27226" fill="none" stroke="black"/>
<path d="M340.944,335.533v -20.2661" fill="none" stroke="black"/>
<path d="M339.808,315.267h 2.27226" fill="none" stroke="black"/>
<path d="M340.944,335.533v 16.5906" fill="none" stroke="black"/>
<path d="M339.808,352.123h 2.27226" fill="none" stroke="black"/>
<path d="M349.198,349.847v -20.2661" fill="none" stroke="black"/>
<path d="M348.062,329.581h 2.27226" fill="none" stroke="black"/>
<path d="M349.198,349.847v 15.5089" fill="none" stroke="black"/>
<path d="M348.062,365.356h 2.27226" fill="none" stroke="black"/>
<path d="M357.451,319.207v -26.243" fill="none" stroke="black"/>
<path d="M356.315,292.964h 2.27226" fill="none" stroke="black"/>
<path d="M357.451,319.207v 20.2661" fill="none" stroke="black"/>
<path d="M356.315,339.473h 2.27226" fill="none" stroke="black"/>
<path d="M365.705,297.568v -26.243" fill="none" stroke="black"/>
<path d="M364.569,271.325h 2.27226" fill="none" stroke="black"/>
<path d="M365.705,297.568v 20.2661" fill="none" stroke="black"/>
<path d="M364.569,317.834h 2.27226" fill="none" stroke="black"/>
<path d="M373.959,326.552v -20.2661" fill="none" stroke="black"/>
<path d="M372.823,306.286h 2.27226" fill="none" stroke="black"/>
<path d="M373.959,326.552v 13.876" fill="none" stroke="black"/>
<path d="M372.823,340.428h 2.27226" fill="none" stroke="black"/>
<path d="M382.213,293.16v -27.4088" fill="none" stroke="black"/>
<path d="M381.076,265.751h 2.27226" fill="none" stroke="black"/>
<path d="M382.213,293.16v 20.2661" fill="none" stroke="black"/>
<path d="M381.076,313.426h 2.27226" fill="none" stroke="black"/>
<path d="M390.466,298.151v -28.2993" fill="none" stroke="black"/>
<path d="M389.33,269.851h 2.27226" fill="none" stroke="black"/>
<path d="M390.466,298.151v 20.2661" fill="none" stroke="black"/>
<path d="M389.33,318.417h 2.27226" fill="none" stroke="black"/>
<path d="M398.72,336.284v -20.2661" fill="none" stroke="black"/>
<path d="M397.584,316.017h 2.27226" fill="none" stroke="black"/>
<path d="M398.72,336.284v 11.3388" fill="none" stroke="black"/>
<path d="M397.584,347.622h 2.27226" fill="none" stroke="black"/>
<path d="M406.974,326.959v -20.2661" fill="none" stroke="black"/>
<path d="M405.837,306.693h 2.27226" fill="none" stroke="black"/>
<path d="M406.974,326.959v 12.2666" fill="none" stroke="black"/>
<path d="M405.837,339.226h 2.27226" fill="none" stroke="black"/>
<path d="M415.227,317.35v -31.7405" fill="none" stroke="black"/>
<path d="M414.091,285.61h 2.27226" fill="none" stroke="black"/>
<path d="M415.227,317.35v 20.2661" fill="none" stroke="black"/>
<path d="M414.091,337.616h 2.27226" fill="none" stroke="black"/>
<path d="M423.481,307.908v -30.5162" fill="none" stroke="black"/>
<path d="M422.345,277.391h 2.27226" fill="none" stroke="black"/>
<path d="M423.481,307.908v 20.2661" fill="none" stroke="black"/>
<path d="M422.345,328.174h 2.27226" fill="none" stroke="black"/>
<path d="M431.735,338.961v -20.2661" fill="none" stroke="black"/>
<path d="M430.599,318.695h 2.27226" fill="none" stroke="black"/>
<path d="M431.735,338.961v 9.92474" fill="none" stroke="black"/>
<path d="M430.599,348.886h 2.27226" fill="none" stroke="black"/>
<path d="M439.988,322.273v -33.4824" fill="none" stroke="black"/>
<path d="M438.852,288.791h 2.27226" fill="none" stroke="black"/>
<path d="M439.988,322.273v 20.2661" fill="none" stroke="black"/>
<path d="M438.852,342.539h 2.27226" fill="none" stroke="black"/>
<path d="M448.242,320.889v -33.4824" fill="none" stroke="black"/>
<path d="M447.106,287.407h 2.27226" fill="none" stroke="black"/>
<path d="M448.242,320.889v 20.2661" fill="none" stroke="black"/>
<path d="M447.106,341.155h 2.27226" fill="none" stroke="black"/>
<path d="M456.496,296.967v -29.599" fill="none" stroke="black"/>
<path d="M455.36,267.368h 2.27226" fill="none" stroke="black"/>
<path d="M456.496,296.967v 20.2661" fill="none" stroke="black"/>
<path d="M455.36,317.233h 2.27226" fill="none" stroke="black"/>
<path d="M464.749,385.82v -20.2661" fill="none" stroke="black"/>
<path d="M463.613,365.553h 2.27226" fill="none" stroke="black"/>
<path d="M473.003,317.27v -33.4824" fill="none" stroke="black"/>
<path d="M471.867,283.787h 2.27226" fill="none" stroke="black"/>
<path d="M473.003,317.27v 20.2661" fill="none" stroke="black"/>
<path d="M471.867,337.536h 2.27226" fill="none" stroke="black"/>
<path d="M481.257,316.237v -33.4824" fill="none" stroke="black"/>
<path d="M480.121,282.754h 2.27226" fill="none" stroke="black"/>
<path d="M481.257,316.237v 20.2661" fill="none" stroke="black"/>
<path d="M480.121,336.503h 2.27226" fill="none" stroke="black"/>
<path d="M489.511,332.817v -20.2661" fill="none" stroke="black"/>
<path d="M488.374,312.55h 2.27226" fill="none" stroke="black"/>
<path d="M489.511,332.817v 9.92474" fill="none" stroke="black"/>
<path d="M488.374,342.741h 2.27226" fill="none" stroke="black"/>
<path d="M497.764,324.381v -20.2661" fill="none" stroke="black"/>
<path d="M496.628,304.115h 2.27226" fill="none" stroke="black"/>
<path d="M497.764,324.381v 11.3388" fill="none" stroke="black"/>
<path d="M496.628,335.72h 2.27226" fill="none" stroke="black"/>
<path d="M506.018,298.487v -30.5162" fill="none" stroke="black"/>
<path d="M504.882,267.971h 2.27226" fill="none" stroke="black"/>
<path d="M506.018,298.487v 20.2661" fill="none" stroke="black"/>
<path d="M504.882,318.754h 2.27226" fill="none" stroke="black"/>
<path d="M514.272,341.119v -20.2661" fill="none" stroke="black"/>
<path d="M513.135,320.853h 2.27226" fill="none" stroke="black"/>
<path d="M514.272,341.119v 7.29066" fill="none" stroke="black"/>
<path d="M513.135,348.41h 2.27226" fill="none" stroke="black"/>
<path d="M522.525,340.62v -20.2661" fill="none" stroke="black"/>
<path d="M521.389,320.353h 2.27226" fill="none" stroke="black"/>
<path d="M522.525,340.62v 7.29066" fill="none" stroke="black"/>
<path d="M521.389,347.91h 2.27226" fill="none" stroke="black"/>
<path d="M530.779,340.192v -20.2661" fill="none" stroke="black"/>
<path d="M529.643,319.926h 2.27226" fill="none" stroke="black"/>
<path d="M530.779,340.192v 7.29066" fill="none" stroke="black"/>
<path d="M529.643,347.483h 2.27226" fill="none" stroke="black"/>
<path d="M539.033,311.432v -33.4824" fill="none" stroke="black"/>
<path d="M537.897,277.949h 2.27226" fill="none" stroke="black"/>
<path d="M539.033,311.432v 20.2661" fill="none" stroke="black"/>
<path d="M537.897,331.698h 2.27226" fill="none" stroke="black"/>
<path d="M547.286,311.092v -33.4824" fill="none" stroke="black"/>
<path d="M546.15,277.609h 2.27226" fill="none" stroke="black"/>
<path d="M547.286,311.092v 20.2661" fill="none" stroke="black"/>
<path d="M546.15,331.358h 2.27226" fill="none" stroke="black"/>
<g fill="black">
<circle cx="60.3185" cy="290.787" r="2.27226"/>
<circle cx="68.5722" cy="299.183" r="2.27226"/>
<circle cx="76.8259" cy="330.123" r="2.27226"/>
<circle cx="85.0796" cy="302.505" r="2.27226"/>
<circle cx="93.3333" cy="344.378" r="2.27226"/>
<circle cx="101.587" cy="328.475" r="2.27226"/>
<circle cx="109.841" cy="304.123" r="2.27226"/>
<circle cx="118.094" cy="338.17" r="2.27226"/>
<circle cx="126.348" cy="331.478" r="2.27226"/>
<circle cx="134.602" cy="350.213" r="2.27226"/>
<circle cx="142.855" cy="318.152" r="2.27226"/>
<circle cx="151.109" cy="294.045" r="2.27226"/>
<circle cx="159.363" cy="324.081" r="2.27226"/>
<circle cx="167.617" cy="347.851" r="2.27226"/>
<circle cx="175.87" cy="345.827" r="2.27226"/>
<circle cx="184.124" cy="343.909" r="2.27226"/>
<circle cx="192.378" cy="326.407" r="2.27226"/>
<circle cx="200.631" cy="330.122" r="2.27226"/>
<circle cx="208.885" cy="329.879" r="2.27226"/>
<circle cx="217.139" cy="321.369" r="2.27226"/>
<circle cx="225.392" cy="326.164" r="2.27226"/>
<circle cx="233.646" cy="316.784" r="2.27226"/>
<circle cx="241.9" cy="299.935" r="2.27226"/>
<circle cx="250.153" cy="338.28" r="2.27226"/>
<circle cx="258.407" cy="336.171" r="2.27226"/>
<circle cx="266.661" cy="327.937" r="2.27226"/>
<circle cx="274.915" cy="323.254" r="2.27226"/>
<circle cx="283.168" cy="335.839" r="2.27226"/>
<circle cx="291.422" cy="308.293" r="2.27226"/>
<circle cx="299.676" cy="310.746" r="2.27226"/>
<circle cx="307.929" cy="310.761" r="2.27226"/>
<circle cx="316.183" cy="312.098" r="2.27226"/>
<circle cx="324.437" cy="340.92" r="2.27226"/>
<circle cx="332.69" cy="325.451" r="2.27226"/>
<circle cx="340.944" cy="335.533" r="2.27226"/>
<circle cx="349.198" cy="349.847" r="2.27226"/>
<circle cx="357.451" cy="319.207" r="2.27226"/>
<circle cx="365.705" cy="297.568" r="2.27226"/>
<circle cx="373.959" cy="326.552" r="2.27226"/>
<circle cx="382.213" cy="293.16" r="2.27226"/>
<circle cx="390.466" cy="298.151" r="2.27226"/>
<circle cx="398.72" cy="336.284" r="2.27226"/>
<circle cx="406.974" cy="326.959" r="2.27226"/>
<circle cx="415.227" cy="317.35" r="2.27226"/>
<circle cx="423.481" cy="307.908" r="2.27226"/>
<circle cx="431.735" cy="338.961" r="2.27226"/>
<circle cx="439.988" cy="322.273" r="2.27226"/>
<circle cx="448.242" cy="320.889" r="2.27226"/>
<circle cx="456.496" cy="296.967" r="2.27226"/>
<circle cx="464.749" cy="385.82" r="2.27226"/>
<circle cx="473.003" cy="317.27" r="2.27226"/>
<circle cx="481.257" cy="316.237" r="2.27226"/>
<circle cx="489.511" cy="332.817" r="2.27226"/>
<circle cx="497.764" cy="324.381" r="2.27226"/>
<circle cx="506.018" cy="298.487" r="2.27226"/>
<circle cx="514.272" cy="341.119" r="2.27226"/>
<circle cx="522.525" cy="340.62" r="2.27226"/>
<circle cx="530.779" cy="340.192" r="2.27226"/>
<circle cx="539.033" cy="311.432" r="2.27226"/>
<circle cx="547.286" cy="311.092" r="2.27226"/>
</g>
<path d="M56.1917,391.823h 495.222" fill="none" stroke="black"/>
<path d="M111.216,380.84v 10.9834" fill="none" stroke="black"/>
<path d="M133.226,386.331v 5.49169" fill="none" stroke="black"/>
<path d="M155.236,386.331v 5.49169" fill="none" stroke="black"/>
<path d="M177.246,386.331v 5.49169" fill="none" stroke="black"/>
<path d="M199.256,386.331v 5.49169" fill="none" stroke="black"/>
<path d="M221.266,380.84v 10.9834" fill="none" stroke="black"/>
<path d="M243.275,386.331v 5.49169" fill="none" stroke="black"/>
<path d="M265.285,386.331v 5.49169" fill="none" stroke="black"/>
<path d="M287.295,386.331v 5.49169" fill="none" stroke="black"/>
<path d="M309.305,386.331v 5.49169" fill="none" stroke="black"/>
<path d="M331.315,380.84v 10.9834" fill="none" stroke="black"/>
<path d="M353.325,386.331v 5.49169" fill="none" stroke="black"/>
<path d="M375.334,386.331v 5.49169" fill="none" stroke="black"/>
<path d="M397.344,386.331v 5.49169" fill="none" stroke="black"/>
<path d="M419.354,386.331v 5.49169" fill="none" stroke="black"/>
<path d="M441.364,380.84v 10.9834" fill="none" stroke="black"/>
<path d="M463.374,386.331v 5.49169" fill="none" stroke="black"/>
<path d="M485.384,386.331v 5.49169" fill="none" stroke="black"/>
<path d="M507.394,386.331v 5.49169" fill="none" stroke="black"/>
<path d="M529.403,386.331v 5.49169" fill="none" stroke="black"/>
<path d="M551.413,380.84v 10.9834" fill="none" stroke="black"/>
<path d="M111.216,380.84v 10.9834" fill="none" stroke="black"/>
<path d="M89.2064,386.331v 5.49169" fill="none" stroke="black"/>
<path d="M67.1966,386.331v 5.49169" fill="none" stroke="black"/>
<path d="M551.413,380.84v 10.9834" fill="none" stroke="black"/>
<path d="M56.1917,391.823v -132.075" fill="none" stroke="black"/>
<path d="M68.6973,363.7h -12.5056" fill="none" stroke="black"/>
<path d="M62.4445,353.567h -6.2528" fill="none" stroke="black"/>
<path d="M62.4445,343.434h -6.2528" fill="none" stroke="black"/>
<path d="M62.4445,333.301h -6.2528" fill="none" stroke="black"/>
<path d="M68.6973,323.167h -12.5056" fill="none" stroke="black"/>
<path d="M62.4445,313.034h -6.2528" fill="none" stroke="black"/>
<path d="M62.4445,302.901h -6.2528" fill="none" stroke="black"/>
<path d="M62.4445,292.768h -6.2528" fill="none" stroke="black"/>
<path d="M68.6973,282.635h -12.5056" fill="none" stroke="black"/>
<path d="M68.6973,363.7h -12.5056" fill="none" stroke="black"/>
<path d="M62.4445,373.833h -6.2528" fill="none" stroke="black"/>
<path d="M62.4445,383.966h -6.2528" fill="none" stroke="black"/>
<path d="M68.6973,282.635h -12.5056" fill="none" stroke="black"/>
<path d="M62.4445,272.502h -6.2528" fill="none" stroke="black"/>
<path d="M62.4445,262.369h -6.2528" fill="none" stroke="black"/>
<text xml:space="preserve" x="282.828" y="265.855" fill="black" font-size="8.05292" font-family="Helvetica"> </text></svg>
