<?xml version="1.0" standalone="no"?>
<svg width="567.429" height="367.253" viewBox="0 0 567.429 367.253" xmlns="http://www.w3.org/2000/svg" shape-rendering="crispEdges">
<title>
pull.svg
</title>
<desc>
Creator: ROOT Version 6.28/04
CreationDate: Mon May 29 11:03:34 2023</desc>
<defs>
</defs>
<rect x="0.5" y="0" width="566.929" height="366.753" fill="white"/>
<rect x="57.1929" y="36.6753" width="453.543" height="293.402" fill="white"/>
<rect x="57.1929" y="36.6753" width="453.543" height="293.402" fill="none" stroke="black"/>
<rect x="57.1929" y="36.6753" width="453.543" height="293.402" fill="white"/>
<rect x="57.1929" y="36.6753" width="453.543" height="293.402" fill="none" stroke="black"/>
<path d="M57.1929,330.078h 453.543" fill="none" stroke="black"/>
<path d="M132.783,309.54v 20.5382" fill="none" stroke="black"/>
<path d="M170.579,319.809v 10.2691" fill="none" stroke="black"/>
<path d="M208.374,319.809v 10.2691" fill="none" stroke="black"/>
<path d="M246.169,319.809v 10.2691" fill="none" stroke="black"/>
<path d="M283.965,309.54v 20.5382" fill="none" stroke="black"/>
<path d="M321.76,319.809v 10.2691" fill="none" stroke="black"/>
<path d="M359.555,319.809v 10.2691" fill="none" stroke="black"/>
<path d="M397.35,319.809v 10.2691" fill="none" stroke="black"/>
<path d="M435.146,309.54v 20.5382" fill="none" stroke="black"/>
<path d="M132.783,309.54v 20.5382" fill="none" stroke="black"/>
<path d="M94.9882,319.809v 10.2691" fill="none" stroke="black"/>
<path d="M57.1929,319.809v 10.2691" fill="none" stroke="black"/>
<path d="M435.146,309.54v 20.5382" fill="none" stroke="black"/>
<path d="M472.941,319.809v 10.2691" fill="none" stroke="black"/>
<text xml:space="preserve" x="132.058" y="340.252" fill="black" font-size="10.5941" font-family="Helvetica">2</text>
<text xml:space="preserve" x="126.852" y="340.252" fill="black" font-size="10.5941" font-family="Times">&#8722;</text>
<text xml:space="preserve" x="281.125" y="340.252" fill="black" font-size="10.5941" font-family="Helvetica">0</text>
<text xml:space="preserve" x="432.085" y="340.252" fill="black" font-size="10.5941" font-family="Helvetica">2</text>
<text xml:space="preserve" x="256.517" y="360.601" fill="black" font-size="15.6412" font-family="Helvetica"> mass pull</text>
<text xml:space="preserve" x="251.312" y="363.914" fill="black" font-size="10.5941" font-family="Helvetica">c</text>
<text xml:space="preserve" x="241.374" y="360.601" fill="black" font-size="15.6412" font-family="Helvetica">B</text>
<path d="M57.1929,330.078v -293.402" fill="none" stroke="black"/>
<path d="M70.7992,329.315h -13.6063" fill="none" stroke="black"/>
<path d="M63.9961,314.059h -6.80315" fill="none" stroke="black"/>
<path d="M63.9961,298.804h -6.80315" fill="none" stroke="black"/>
<path d="M63.9961,283.548h -6.80315" fill="none" stroke="black"/>
<path d="M63.9961,268.293h -6.80315" fill="none" stroke="black"/>
<path d="M70.7992,253.037h -13.6063" fill="none" stroke="black"/>
<path d="M63.9961,237.781h -6.80315" fill="none" stroke="black"/>
<path d="M63.9961,222.526h -6.80315" fill="none" stroke="black"/>
<path d="M63.9961,207.27h -6.80315" fill="none" stroke="black"/>
<path d="M63.9961,192.015h -6.80315" fill="none" stroke="black"/>
<path d="M70.7992,176.759h -13.6063" fill="none" stroke="black"/>
<path d="M63.9961,161.504h -6.80315" fill="none" stroke="black"/>
<path d="M63.9961,146.248h -6.80315" fill="none" stroke="black"/>
<path d="M63.9961,130.992h -6.80315" fill="none" stroke="black"/>
<path d="M63.9961,115.737h -6.80315" fill="none" stroke="black"/>
<path d="M70.7992,100.481h -13.6063" fill="none" stroke="black"/>
<path d="M70.7992,329.315h -13.6063" fill="none" stroke="black"/>
<path d="M70.7992,100.481h -13.6063" fill="none" stroke="black"/>
<path d="M63.9961,85.2258h -6.80315" fill="none" stroke="black"/>
<path d="M63.9961,69.9702h -6.80315" fill="none" stroke="black"/>
<path d="M63.9961,54.7146h -6.80315" fill="none" stroke="black"/>
<path d="M63.9961,39.4591h -6.80315" fill="none" stroke="black"/>
<text xml:space="preserve" x="48.2962" y="332.68" fill="black" font-size="10.5941" font-family="Helvetica">0</text>
<text xml:space="preserve" x="42.6174" y="256.49" fill="black" font-size="10.5941" font-family="Helvetica">10</text>
<text xml:space="preserve" x="42.6174" y="180.301" fill="black" font-size="10.5941" font-family="Helvetica">20</text>
<text xml:space="preserve" x="42.6174" y="104.111" fill="black" font-size="10.5941" font-family="Helvetica">30</text>
<g transform="rotate(-90,40.7245,208.694)">
<text xml:space="preserve" x="40.7245" y="208.694" fill="black" font-size="17.3235" font-family="Helvetica">Events</text>
</g>
<path d="M59.4606,329.315v -8.75574" fill="none" stroke="black"/>
<path d="M58.5142,320.559h 1.89292" fill="none" stroke="black"/>
<path d="M63.9961,329.315v -8.75574" fill="none" stroke="black"/>
<path d="M63.0496,320.559h 1.89292" fill="none" stroke="black"/>
<path d="M68.5315,329.315v -8.75574" fill="none" stroke="black"/>
<path d="M67.585,320.559h 1.89292" fill="none" stroke="black"/>
<path d="M73.0669,321.687v -17.5403" fill="none" stroke="black"/>
<path d="M72.1205,304.147h 1.89292" fill="none" stroke="black"/>
<path d="M73.0669,321.687v 6.31006" fill="none" stroke="black"/>
<path d="M72.1205,327.997h 1.89292" fill="none" stroke="black"/>
<path d="M77.6024,329.315v -8.75574" fill="none" stroke="black"/>
<path d="M76.6559,320.559h 1.89292" fill="none" stroke="black"/>
<path d="M82.1378,329.315v -8.75574" fill="none" stroke="black"/>
<path d="M81.1913,320.559h 1.89292" fill="none" stroke="black"/>
<path d="M86.6732,329.315v -8.75574" fill="none" stroke="black"/>
<path d="M85.7268,320.559h 1.89292" fill="none" stroke="black"/>
<path d="M91.2087,321.687v -17.5403" fill="none" stroke="black"/>
<path d="M90.2622,304.147h 1.89292" fill="none" stroke="black"/>
<path d="M91.2087,321.687v 6.31006" fill="none" stroke="black"/>
<path d="M90.2622,327.997h 1.89292" fill="none" stroke="black"/>
<path d="M95.7441,329.315v -8.75574" fill="none" stroke="black"/>
<path d="M94.7976,320.559h 1.89292" fill="none" stroke="black"/>
<path d="M100.28,321.687v -17.5403" fill="none" stroke="black"/>
<path d="M99.3331,304.147h 1.89292" fill="none" stroke="black"/>
<path d="M100.28,321.687v 6.31006" fill="none" stroke="black"/>
<path d="M99.3331,327.997h 1.89292" fill="none" stroke="black"/>
<path d="M104.815,314.059v -20.121" fill="none" stroke="black"/>
<path d="M103.869,293.938h 1.89292" fill="none" stroke="black"/>
<path d="M104.815,314.059v 9.85368" fill="none" stroke="black"/>
<path d="M103.869,323.913h 1.89292" fill="none" stroke="black"/>
<path d="M109.35,321.687v -17.5403" fill="none" stroke="black"/>
<path d="M108.404,304.147h 1.89292" fill="none" stroke="black"/>
<path d="M109.35,321.687v 6.31006" fill="none" stroke="black"/>
<path d="M108.404,327.997h 1.89292" fill="none" stroke="black"/>
<path d="M113.886,321.687v -17.5403" fill="none" stroke="black"/>
<path d="M112.939,304.147h 1.89292" fill="none" stroke="black"/>
<path d="M113.886,321.687v 6.31006" fill="none" stroke="black"/>
<path d="M112.939,327.997h 1.89292" fill="none" stroke="black"/>
<path d="M118.421,306.432v -22.2593" fill="none" stroke="black"/>
<path d="M117.475,284.172h 1.89292" fill="none" stroke="black"/>
<path d="M118.421,306.432v 12.4539" fill="none" stroke="black"/>
<path d="M117.475,318.885h 1.89292" fill="none" stroke="black"/>
<path d="M122.957,298.804v -24.1248" fill="none" stroke="black"/>
<path d="M122.01,274.679h 1.89292" fill="none" stroke="black"/>
<path d="M122.957,298.804v 14.6022" fill="none" stroke="black"/>
<path d="M122.01,313.406h 1.89292" fill="none" stroke="black"/>
<path d="M127.492,306.432v -22.2593" fill="none" stroke="black"/>
<path d="M126.546,284.172h 1.89292" fill="none" stroke="black"/>
<path d="M127.492,306.432v 12.4539" fill="none" stroke="black"/>
<path d="M126.546,318.885h 1.89292" fill="none" stroke="black"/>
<path d="M132.028,306.432v -22.2593" fill="none" stroke="black"/>
<path d="M131.081,284.172h 1.89292" fill="none" stroke="black"/>
<path d="M132.028,306.432v 12.4539" fill="none" stroke="black"/>
<path d="M131.081,318.885h 1.89292" fill="none" stroke="black"/>
<path d="M136.563,321.687v -17.5403" fill="none" stroke="black"/>
<path d="M135.617,304.147h 1.89292" fill="none" stroke="black"/>
<path d="M136.563,321.687v 6.31006" fill="none" stroke="black"/>
<path d="M135.617,327.997h 1.89292" fill="none" stroke="black"/>
<path d="M141.098,291.176v -25.8008" fill="none" stroke="black"/>
<path d="M140.152,265.375h 1.89292" fill="none" stroke="black"/>
<path d="M141.098,291.176v 16.4737" fill="none" stroke="black"/>
<path d="M140.152,307.65h 1.89292" fill="none" stroke="black"/>
<path d="M145.634,253.037v -32.5474" fill="none" stroke="black"/>
<path d="M144.687,220.49h 1.89292" fill="none" stroke="black"/>
<path d="M145.634,253.037v 23.7125" fill="none" stroke="black"/>
<path d="M144.687,276.75h 1.89292" fill="none" stroke="black"/>
<path d="M150.169,283.548v -27.3353" fill="none" stroke="black"/>
<path d="M149.223,256.213h 1.89292" fill="none" stroke="black"/>
<path d="M150.169,283.548v 18.1536" fill="none" stroke="black"/>
<path d="M149.223,301.702h 1.89292" fill="none" stroke="black"/>
<path d="M154.705,291.176v -25.8008" fill="none" stroke="black"/>
<path d="M153.758,265.375h 1.89292" fill="none" stroke="black"/>
<path d="M154.705,291.176v 16.4737" fill="none" stroke="black"/>
<path d="M153.758,307.65h 1.89292" fill="none" stroke="black"/>
<path d="M159.24,291.176v -25.8008" fill="none" stroke="black"/>
<path d="M158.294,265.375h 1.89292" fill="none" stroke="black"/>
<path d="M159.24,291.176v 16.4737" fill="none" stroke="black"/>
<path d="M158.294,307.65h 1.89292" fill="none" stroke="black"/>
<path d="M163.776,253.037v -32.5474" fill="none" stroke="black"/>
<path d="M162.829,220.49h 1.89292" fill="none" stroke="black"/>
<path d="M163.776,253.037v 23.7125" fill="none" stroke="black"/>
<path d="M162.829,276.75h 1.89292" fill="none" stroke="black"/>
<path d="M168.311,306.432v -22.2593" fill="none" stroke="black"/>
<path d="M167.365,284.172h 1.89292" fill="none" stroke="black"/>
<path d="M168.311,306.432v 12.4539" fill="none" stroke="black"/>
<path d="M167.365,318.885h 1.89292" fill="none" stroke="black"/>
<path d="M172.846,253.037v -32.5474" fill="none" stroke="black"/>
<path d="M171.9,220.49h 1.89292" fill="none" stroke="black"/>
<path d="M172.846,253.037v 23.7125" fill="none" stroke="black"/>
<path d="M171.9,276.75h 1.89292" fill="none" stroke="black"/>
<path d="M177.382,291.176v -25.8008" fill="none" stroke="black"/>
<path d="M176.435,265.375h 1.89292" fill="none" stroke="black"/>
<path d="M177.382,291.176v 16.4737" fill="none" stroke="black"/>
<path d="M176.435,307.65h 1.89292" fill="none" stroke="black"/>
<path d="M181.917,291.176v -25.8008" fill="none" stroke="black"/>
<path d="M180.971,265.375h 1.89292" fill="none" stroke="black"/>
<path d="M181.917,291.176v 16.4737" fill="none" stroke="black"/>
<path d="M180.971,307.65h 1.89292" fill="none" stroke="black"/>
<path d="M186.453,207.27v -38.7725" fill="none" stroke="black"/>
<path d="M185.506,168.498h 1.89292" fill="none" stroke="black"/>
<path d="M186.453,207.27v 30.1893" fill="none" stroke="black"/>
<path d="M185.506,237.46h 1.89292" fill="none" stroke="black"/>
<path d="M190.988,291.176v -25.8008" fill="none" stroke="black"/>
<path d="M190.042,265.375h 1.89292" fill="none" stroke="black"/>
<path d="M190.988,291.176v 16.4737" fill="none" stroke="black"/>
<path d="M190.042,307.65h 1.89292" fill="none" stroke="black"/>
<path d="M195.524,260.665v -31.3518" fill="none" stroke="black"/>
<path d="M194.577,229.313h 1.89292" fill="none" stroke="black"/>
<path d="M195.524,260.665v 22.4521" fill="none" stroke="black"/>
<path d="M194.577,283.117h 1.89292" fill="none" stroke="black"/>
<path d="M200.059,222.526v -36.8451" fill="none" stroke="black"/>
<path d="M199.113,185.681h 1.89292" fill="none" stroke="black"/>
<path d="M200.059,222.526v 28.1961" fill="none" stroke="black"/>
<path d="M199.113,250.722h 1.89292" fill="none" stroke="black"/>
<path d="M204.594,245.409v -33.6883" fill="none" stroke="black"/>
<path d="M203.648,211.721h 1.89292" fill="none" stroke="black"/>
<path d="M204.594,245.409v 24.9091" fill="none" stroke="black"/>
<path d="M203.648,270.318h 1.89292" fill="none" stroke="black"/>
<path d="M209.13,237.781v -34.7813" fill="none" stroke="black"/>
<path d="M208.183,203h 1.89292" fill="none" stroke="black"/>
<path d="M209.13,237.781v 26.0509" fill="none" stroke="black"/>
<path d="M208.183,263.832h 1.89292" fill="none" stroke="black"/>
<path d="M213.665,192.015v -40.5875" fill="none" stroke="black"/>
<path d="M212.719,151.427h 1.89292" fill="none" stroke="black"/>
<path d="M213.665,192.015v 32.0587" fill="none" stroke="black"/>
<path d="M212.719,224.073h 1.89292" fill="none" stroke="black"/>
<path d="M218.201,130.992v -47.0201" fill="none" stroke="black"/>
<path d="M217.254,83.9723h 1.89292" fill="none" stroke="black"/>
<path d="M218.201,130.992v 38.6425" fill="none" stroke="black"/>
<path d="M217.254,169.635h 1.89292" fill="none" stroke="black"/>
<path d="M222.736,169.131v -43.1365" fill="none" stroke="black"/>
<path d="M221.79,125.995h 1.89292" fill="none" stroke="black"/>
<path d="M222.736,169.131v 34.6744" fill="none" stroke="black"/>
<path d="M221.79,203.806h 1.89292" fill="none" stroke="black"/>
<path d="M227.272,153.876v -44.7388" fill="none" stroke="black"/>
<path d="M226.325,109.137h 1.89292" fill="none" stroke="black"/>
<path d="M227.272,153.876v 36.3137" fill="none" stroke="black"/>
<path d="M226.325,190.19h 1.89292" fill="none" stroke="black"/>
<path d="M231.807,214.898v -37.8242" fill="none" stroke="black"/>
<path d="M230.861,177.074h 1.89292" fill="none" stroke="black"/>
<path d="M231.807,214.898v 29.2097" fill="none" stroke="black"/>
<path d="M230.861,244.108h 1.89292" fill="none" stroke="black"/>
<path d="M236.343,199.643v -39.6929" fill="none" stroke="black"/>
<path d="M235.396,159.95h 1.89292" fill="none" stroke="black"/>
<path d="M236.343,199.643v 31.138" fill="none" stroke="black"/>
<path d="M235.396,230.781h 1.89292" fill="none" stroke="black"/>
<path d="M240.878,161.504v -43.9465" fill="none" stroke="black"/>
<path d="M239.931,117.557h 1.89292" fill="none" stroke="black"/>
<path d="M240.878,161.504v 35.5035" fill="none" stroke="black"/>
<path d="M239.931,197.007h 1.89292" fill="none" stroke="black"/>
<path d="M245.413,138.62v -46.2746" fill="none" stroke="black"/>
<path d="M244.467,92.3456h 1.89292" fill="none" stroke="black"/>
<path d="M245.413,138.62v 37.8821" fill="none" stroke="black"/>
<path d="M244.467,176.502h 1.89292" fill="none" stroke="black"/>
<path d="M249.949,176.759v -42.3077" fill="none" stroke="black"/>
<path d="M249.002,134.452h 1.89292" fill="none" stroke="black"/>
<path d="M249.949,176.759v 33.825" fill="none" stroke="black"/>
<path d="M249.002,210.584h 1.89292" fill="none" stroke="black"/>
<path d="M254.484,130.992v -47.0201" fill="none" stroke="black"/>
<path d="M253.538,83.9723h 1.89292" fill="none" stroke="black"/>
<path d="M254.484,130.992v 38.6425" fill="none" stroke="black"/>
<path d="M253.538,169.635h 1.89292" fill="none" stroke="black"/>
<path d="M259.02,153.876v -44.7388" fill="none" stroke="black"/>
<path d="M258.073,109.137h 1.89292" fill="none" stroke="black"/>
<path d="M259.02,153.876v 36.3137" fill="none" stroke="black"/>
<path d="M258.073,190.19h 1.89292" fill="none" stroke="black"/>
<path d="M263.555,169.131v -43.1365" fill="none" stroke="black"/>
<path d="M262.609,125.995h 1.89292" fill="none" stroke="black"/>
<path d="M263.555,169.131v 34.6744" fill="none" stroke="black"/>
<path d="M262.609,203.806h 1.89292" fill="none" stroke="black"/>
<path d="M268.091,199.643v -39.6929" fill="none" stroke="black"/>
<path d="M267.144,159.95h 1.89292" fill="none" stroke="black"/>
<path d="M268.091,199.643v 31.138" fill="none" stroke="black"/>
<path d="M267.144,230.781h 1.89292" fill="none" stroke="black"/>
<path d="M272.626,176.759v -42.3077" fill="none" stroke="black"/>
<path d="M271.68,134.452h 1.89292" fill="none" stroke="black"/>
<path d="M272.626,176.759v 33.825" fill="none" stroke="black"/>
<path d="M271.68,210.584h 1.89292" fill="none" stroke="black"/>
<path d="M277.161,100.481v -49.8708" fill="none" stroke="black"/>
<path d="M276.215,50.6105h 1.89292" fill="none" stroke="black"/>
<path d="M277.161,100.481v 41.5449" fill="none" stroke="black"/>
<path d="M276.215,142.026h 1.89292" fill="none" stroke="black"/>
<path d="M281.697,169.131v -43.1365" fill="none" stroke="black"/>
<path d="M280.75,125.995h 1.89292" fill="none" stroke="black"/>
<path d="M281.697,169.131v 34.6744" fill="none" stroke="black"/>
<path d="M280.75,203.806h 1.89292" fill="none" stroke="black"/>
<path d="M286.232,176.759v -42.3077" fill="none" stroke="black"/>
<path d="M285.286,134.452h 1.89292" fill="none" stroke="black"/>
<path d="M286.232,176.759v 33.825" fill="none" stroke="black"/>
<path d="M285.286,210.584h 1.89292" fill="none" stroke="black"/>
<path d="M290.768,169.131v -43.1365" fill="none" stroke="black"/>
<path d="M289.821,125.995h 1.89292" fill="none" stroke="black"/>
<path d="M290.768,169.131v 34.6744" fill="none" stroke="black"/>
<path d="M289.821,203.806h 1.89292" fill="none" stroke="black"/>
<path d="M295.303,169.131v -43.1365" fill="none" stroke="black"/>
<path d="M294.357,125.995h 1.89292" fill="none" stroke="black"/>
<path d="M295.303,169.131v 34.6744" fill="none" stroke="black"/>
<path d="M294.357,203.806h 1.89292" fill="none" stroke="black"/>
<path d="M299.839,123.365v -47.7518" fill="none" stroke="black"/>
<path d="M298.892,75.6129h 1.89292" fill="none" stroke="black"/>
<path d="M299.839,123.365v 39.3881" fill="none" stroke="black"/>
<path d="M298.892,162.753h 1.89292" fill="none" stroke="black"/>
<path d="M304.374,169.131v -43.1365" fill="none" stroke="black"/>
<path d="M303.428,125.995h 1.89292" fill="none" stroke="black"/>
<path d="M304.374,169.131v 34.6744" fill="none" stroke="black"/>
<path d="M303.428,203.806h 1.89292" fill="none" stroke="black"/>
<path d="M308.909,100.481v -49.8708" fill="none" stroke="black"/>
<path d="M307.963,50.6105h 1.89292" fill="none" stroke="black"/>
<path d="M308.909,100.481v 41.5449" fill="none" stroke="black"/>
<path d="M307.963,142.026h 1.89292" fill="none" stroke="black"/>
<path d="M313.445,169.131v -43.1365" fill="none" stroke="black"/>
<path d="M312.498,125.995h 1.89292" fill="none" stroke="black"/>
<path d="M313.445,169.131v 34.6744" fill="none" stroke="black"/>
<path d="M312.498,203.806h 1.89292" fill="none" stroke="black"/>
<path d="M317.98,108.109v -49.1765" fill="none" stroke="black"/>
<path d="M317.034,58.9326h 1.89292" fill="none" stroke="black"/>
<path d="M317.98,108.109v 40.8386" fill="none" stroke="black"/>
<path d="M317.034,148.948h 1.89292" fill="none" stroke="black"/>
<path d="M322.516,146.248v -45.5145" fill="none" stroke="black"/>
<path d="M321.569,100.734h 1.89292" fill="none" stroke="black"/>
<path d="M322.516,146.248v 37.1062" fill="none" stroke="black"/>
<path d="M321.569,183.354h 1.89292" fill="none" stroke="black"/>
<path d="M327.051,130.992v -47.0201" fill="none" stroke="black"/>
<path d="M326.105,83.9723h 1.89292" fill="none" stroke="black"/>
<path d="M327.051,130.992v 38.6425" fill="none" stroke="black"/>
<path d="M326.105,169.635h 1.89292" fill="none" stroke="black"/>
<path d="M331.587,214.898v -37.8242" fill="none" stroke="black"/>
<path d="M330.64,177.074h 1.89292" fill="none" stroke="black"/>
<path d="M331.587,214.898v 29.2097" fill="none" stroke="black"/>
<path d="M330.64,244.108h 1.89292" fill="none" stroke="black"/>
<path d="M336.122,184.387v -41.4585" fill="none" stroke="black"/>
<path d="M335.176,142.928h 1.89292" fill="none" stroke="black"/>
<path d="M336.122,184.387v 32.9537" fill="none" stroke="black"/>
<path d="M335.176,217.341h 1.89292" fill="none" stroke="black"/>
<path d="M340.657,214.898v -37.8242" fill="none" stroke="black"/>
<path d="M339.711,177.074h 1.89292" fill="none" stroke="black"/>
<path d="M340.657,214.898v 29.2097" fill="none" stroke="black"/>
<path d="M339.711,244.108h 1.89292" fill="none" stroke="black"/>
<path d="M345.193,214.898v -37.8242" fill="none" stroke="black"/>
<path d="M344.246,177.074h 1.89292" fill="none" stroke="black"/>
<path d="M345.193,214.898v 29.2097" fill="none" stroke="black"/>
<path d="M344.246,244.108h 1.89292" fill="none" stroke="black"/>
<path d="M349.728,184.387v -41.4585" fill="none" stroke="black"/>
<path d="M348.782,142.928h 1.89292" fill="none" stroke="black"/>
<path d="M349.728,184.387v 32.9537" fill="none" stroke="black"/>
<path d="M348.782,217.341h 1.89292" fill="none" stroke="black"/>
<path d="M354.264,214.898v -37.8242" fill="none" stroke="black"/>
<path d="M353.317,177.074h 1.89292" fill="none" stroke="black"/>
<path d="M354.264,214.898v 29.2097" fill="none" stroke="black"/>
<path d="M353.317,244.108h 1.89292" fill="none" stroke="black"/>
<path d="M358.799,222.526v -36.8451" fill="none" stroke="black"/>
<path d="M357.853,185.681h 1.89292" fill="none" stroke="black"/>
<path d="M358.799,222.526v 28.1961" fill="none" stroke="black"/>
<path d="M357.853,250.722h 1.89292" fill="none" stroke="black"/>
<path d="M363.335,153.876v -44.7388" fill="none" stroke="black"/>
<path d="M362.388,109.137h 1.89292" fill="none" stroke="black"/>
<path d="M363.335,153.876v 36.3137" fill="none" stroke="black"/>
<path d="M362.388,190.19h 1.89292" fill="none" stroke="black"/>
<path d="M367.87,207.27v -38.7725" fill="none" stroke="black"/>
<path d="M366.924,168.498h 1.89292" fill="none" stroke="black"/>
<path d="M367.87,207.27v 30.1893" fill="none" stroke="black"/>
<path d="M366.924,237.46h 1.89292" fill="none" stroke="black"/>
<path d="M372.406,291.176v -25.8008" fill="none" stroke="black"/>
<path d="M371.459,265.375h 1.89292" fill="none" stroke="black"/>
<path d="M372.406,291.176v 16.4737" fill="none" stroke="black"/>
<path d="M371.459,307.65h 1.89292" fill="none" stroke="black"/>
<path d="M376.941,237.781v -34.7813" fill="none" stroke="black"/>
<path d="M375.994,203h 1.89292" fill="none" stroke="black"/>
<path d="M376.941,237.781v 26.0509" fill="none" stroke="black"/>
<path d="M375.994,263.832h 1.89292" fill="none" stroke="black"/>
<path d="M381.476,283.548v -27.3353" fill="none" stroke="black"/>
<path d="M380.53,256.213h 1.89292" fill="none" stroke="black"/>
<path d="M381.476,283.548v 18.1536" fill="none" stroke="black"/>
<path d="M380.53,301.702h 1.89292" fill="none" stroke="black"/>
<path d="M386.012,253.037v -32.5474" fill="none" stroke="black"/>
<path d="M385.065,220.49h 1.89292" fill="none" stroke="black"/>
<path d="M386.012,253.037v 23.7125" fill="none" stroke="black"/>
<path d="M385.065,276.75h 1.89292" fill="none" stroke="black"/>
<path d="M390.547,268.293v -30.0927" fill="none" stroke="black"/>
<path d="M389.601,238.2h 1.89292" fill="none" stroke="black"/>
<path d="M390.547,268.293v 21.1167" fill="none" stroke="black"/>
<path d="M389.601,289.409h 1.89292" fill="none" stroke="black"/>
<path d="M395.083,275.92v -28.7589" fill="none" stroke="black"/>
<path d="M394.136,247.162h 1.89292" fill="none" stroke="black"/>
<path d="M395.083,275.92v 19.6909" fill="none" stroke="black"/>
<path d="M394.136,295.611h 1.89292" fill="none" stroke="black"/>
<path d="M399.618,245.409v -33.6883" fill="none" stroke="black"/>
<path d="M398.672,211.721h 1.89292" fill="none" stroke="black"/>
<path d="M399.618,245.409v 24.9091" fill="none" stroke="black"/>
<path d="M398.672,270.318h 1.89292" fill="none" stroke="black"/>
<path d="M404.154,306.432v -22.2593" fill="none" stroke="black"/>
<path d="M403.207,284.172h 1.89292" fill="none" stroke="black"/>
<path d="M404.154,306.432v 12.4539" fill="none" stroke="black"/>
<path d="M403.207,318.885h 1.89292" fill="none" stroke="black"/>
<path d="M408.689,298.804v -24.1248" fill="none" stroke="black"/>
<path d="M407.743,274.679h 1.89292" fill="none" stroke="black"/>
<path d="M408.689,298.804v 14.6022" fill="none" stroke="black"/>
<path d="M407.743,313.406h 1.89292" fill="none" stroke="black"/>
<path d="M413.224,283.548v -27.3353" fill="none" stroke="black"/>
<path d="M412.278,256.213h 1.89292" fill="none" stroke="black"/>
<path d="M413.224,283.548v 18.1536" fill="none" stroke="black"/>
<path d="M412.278,301.702h 1.89292" fill="none" stroke="black"/>
<path d="M417.76,283.548v -27.3353" fill="none" stroke="black"/>
<path d="M416.813,256.213h 1.89292" fill="none" stroke="black"/>
<path d="M417.76,283.548v 18.1536" fill="none" stroke="black"/>
<path d="M416.813,301.702h 1.89292" fill="none" stroke="black"/>
<path d="M422.295,314.059v -20.121" fill="none" stroke="black"/>
<path d="M421.349,293.938h 1.89292" fill="none" stroke="black"/>
<path d="M422.295,314.059v 9.85368" fill="none" stroke="black"/>
<path d="M421.349,323.913h 1.89292" fill="none" stroke="black"/>
<path d="M426.831,298.804v -24.1248" fill="none" stroke="black"/>
<path d="M425.884,274.679h 1.89292" fill="none" stroke="black"/>
<path d="M426.831,298.804v 14.6022" fill="none" stroke="black"/>
<path d="M425.884,313.406h 1.89292" fill="none" stroke="black"/>
<path d="M431.366,314.059v -20.121" fill="none" stroke="black"/>
<path d="M430.42,293.938h 1.89292" fill="none" stroke="black"/>
<path d="M431.366,314.059v 9.85368" fill="none" stroke="black"/>
<path d="M430.42,323.913h 1.89292" fill="none" stroke="black"/>
<path d="M435.902,321.687v -17.5403" fill="none" stroke="black"/>
<path d="M434.955,304.147h 1.89292" fill="none" stroke="black"/>
<path d="M435.902,321.687v 6.31006" fill="none" stroke="black"/>
<path d="M434.955,327.997h 1.89292" fill="none" stroke="black"/>
<path d="M440.437,291.176v -25.8008" fill="none" stroke="black"/>
<path d="M439.491,265.375h 1.89292" fill="none" stroke="black"/>
<path d="M440.437,291.176v 16.4737" fill="none" stroke="black"/>
<path d="M439.491,307.65h 1.89292" fill="none" stroke="black"/>
<path d="M444.972,314.059v -20.121" fill="none" stroke="black"/>
<path d="M444.026,293.938h 1.89292" fill="none" stroke="black"/>
<path d="M444.972,314.059v 9.85368" fill="none" stroke="black"/>
<path d="M444.026,323.913h 1.89292" fill="none" stroke="black"/>
<path d="M449.508,306.432v -22.2593" fill="none" stroke="black"/>
<path d="M448.561,284.172h 1.89292" fill="none" stroke="black"/>
<path d="M449.508,306.432v 12.4539" fill="none" stroke="black"/>
<path d="M448.561,318.885h 1.89292" fill="none" stroke="black"/>
<path d="M454.043,329.315v -8.75574" fill="none" stroke="black"/>
<path d="M453.097,320.559h 1.89292" fill="none" stroke="black"/>
<path d="M458.579,306.432v -22.2593" fill="none" stroke="black"/>
<path d="M457.632,284.172h 1.89292" fill="none" stroke="black"/>
<path d="M458.579,306.432v 12.4539" fill="none" stroke="black"/>
<path d="M457.632,318.885h 1.89292" fill="none" stroke="black"/>
<path d="M463.114,321.687v -17.5403" fill="none" stroke="black"/>
<path d="M462.168,304.147h 1.89292" fill="none" stroke="black"/>
<path d="M463.114,321.687v 6.31006" fill="none" stroke="black"/>
<path d="M462.168,327.997h 1.89292" fill="none" stroke="black"/>
<path d="M467.65,314.059v -20.121" fill="none" stroke="black"/>
<path d="M466.703,293.938h 1.89292" fill="none" stroke="black"/>
<path d="M467.65,314.059v 9.85368" fill="none" stroke="black"/>
<path d="M466.703,323.913h 1.89292" fill="none" stroke="black"/>
<path d="M472.185,321.687v -17.5403" fill="none" stroke="black"/>
<path d="M471.239,304.147h 1.89292" fill="none" stroke="black"/>
<path d="M472.185,321.687v 6.31006" fill="none" stroke="black"/>
<path d="M471.239,327.997h 1.89292" fill="none" stroke="black"/>
<path d="M476.72,329.315v -8.75574" fill="none" stroke="black"/>
<path d="M475.774,320.559h 1.89292" fill="none" stroke="black"/>
<path d="M481.256,321.687v -17.5403" fill="none" stroke="black"/>
<path d="M480.309,304.147h 1.89292" fill="none" stroke="black"/>
<path d="M481.256,321.687v 6.31006" fill="none" stroke="black"/>
<path d="M480.309,327.997h 1.89292" fill="none" stroke="black"/>
<path d="M485.791,321.687v -17.5403" fill="none" stroke="black"/>
<path d="M484.845,304.147h 1.89292" fill="none" stroke="black"/>
<path d="M485.791,321.687v 6.31006" fill="none" stroke="black"/>
<path d="M484.845,327.997h 1.89292" fill="none" stroke="black"/>
<path d="M490.327,329.315v -8.75574" fill="none" stroke="black"/>
<path d="M489.38,320.559h 1.89292" fill="none" stroke="black"/>
<path d="M494.862,329.315v -8.75574" fill="none" stroke="black"/>
<path d="M493.916,320.559h 1.89292" fill="none" stroke="black"/>
<path d="M499.398,314.059v -20.121" fill="none" stroke="black"/>
<path d="M498.451,293.938h 1.89292" fill="none" stroke="black"/>
<path d="M499.398,314.059v 9.85368" fill="none" stroke="black"/>
<path d="M498.451,323.913h 1.89292" fill="none" stroke="black"/>
<path d="M503.933,314.059v -20.121" fill="none" stroke="black"/>
<path d="M502.987,293.938h 1.89292" fill="none" stroke="black"/>
<path d="M503.933,314.059v 9.85368" fill="none" stroke="black"/>
<path d="M502.987,323.913h 1.89292" fill="none" stroke="black"/>
<path d="M508.469,321.687v -17.5403" fill="none" stroke="black"/>
<path d="M507.522,304.147h 1.89292" fill="none" stroke="black"/>
<path d="M508.469,321.687v 6.31006" fill="none" stroke="black"/>
<path d="M507.522,327.997h 1.89292" fill="none" stroke="black"/>
<g fill="black">
<circle cx="59.4606" cy="329.315" r="1.51433"/>
<circle cx="63.9961" cy="329.315" r="1.51433"/>
<circle cx="68.5315" cy="329.315" r="1.51433"/>
<circle cx="73.0669" cy="321.687" r="1.51433"/>
<circle cx="77.6024" cy="329.315" r="1.51433"/>
<circle cx="82.1378" cy="329.315" r="1.51433"/>
<circle cx="86.6732" cy="329.315" r="1.51433"/>
<circle cx="91.2087" cy="321.687" r="1.51433"/>
<circle cx="95.7441" cy="329.315" r="1.51433"/>
<circle cx="100.28" cy="321.687" r="1.51433"/>
<circle cx="104.815" cy="314.059" r="1.51433"/>
<circle cx="109.35" cy="321.687" r="1.51433"/>
<circle cx="113.886" cy="321.687" r="1.51433"/>
<circle cx="118.421" cy="306.432" r="1.51433"/>
<circle cx="122.957" cy="298.804" r="1.51433"/>
<circle cx="127.492" cy="306.432" r="1.51433"/>
<circle cx="132.028" cy="306.432" r="1.51433"/>
<circle cx="136.563" cy="321.687" r="1.51433"/>
<circle cx="141.098" cy="291.176" r="1.51433"/>
<circle cx="145.634" cy="253.037" r="1.51433"/>
<circle cx="150.169" cy="283.548" r="1.51433"/>
<circle cx="154.705" cy="291.176" r="1.51433"/>
<circle cx="159.24" cy="291.176" r="1.51433"/>
<circle cx="163.776" cy="253.037" r="1.51433"/>
<circle cx="168.311" cy="306.432" r="1.51433"/>
<circle cx="172.846" cy="253.037" r="1.51433"/>
<circle cx="177.382" cy="291.176" r="1.51433"/>
<circle cx="181.917" cy="291.176" r="1.51433"/>
<circle cx="186.453" cy="207.27" r="1.51433"/>
<circle cx="190.988" cy="291.176" r="1.51433"/>
<circle cx="195.524" cy="260.665" r="1.51433"/>
<circle cx="200.059" cy="222.526" r="1.51433"/>
<circle cx="204.594" cy="245.409" r="1.51433"/>
<circle cx="209.13" cy="237.781" r="1.51433"/>
<circle cx="213.665" cy="192.015" r="1.51433"/>
<circle cx="218.201" cy="130.992" r="1.51433"/>
<circle cx="222.736" cy="169.131" r="1.51433"/>
<circle cx="227.272" cy="153.876" r="1.51433"/>
<circle cx="231.807" cy="214.898" r="1.51433"/>
<circle cx="236.343" cy="199.643" r="1.51433"/>
<circle cx="240.878" cy="161.504" r="1.51433"/>
<circle cx="245.413" cy="138.62" r="1.51433"/>
<circle cx="249.949" cy="176.759" r="1.51433"/>
<circle cx="254.484" cy="130.992" r="1.51433"/>
<circle cx="259.02" cy="153.876" r="1.51433"/>
<circle cx="263.555" cy="169.131" r="1.51433"/>
<circle cx="268.091" cy="199.643" r="1.51433"/>
<circle cx="272.626" cy="176.759" r="1.51433"/>
<circle cx="277.161" cy="100.481" r="1.51433"/>
<circle cx="281.697" cy="169.131" r="1.51433"/>
<circle cx="286.232" cy="176.759" r="1.51433"/>
<circle cx="290.768" cy="169.131" r="1.51433"/>
<circle cx="295.303" cy="169.131" r="1.51433"/>
<circle cx="299.839" cy="123.365" r="1.51433"/>
<circle cx="304.374" cy="169.131" r="1.51433"/>
<circle cx="308.909" cy="100.481" r="1.51433"/>
<circle cx="313.445" cy="169.131" r="1.51433"/>
<circle cx="317.98" cy="108.109" r="1.51433"/>
<circle cx="322.516" cy="146.248" r="1.51433"/>
<circle cx="327.051" cy="130.992" r="1.51433"/>
<circle cx="331.587" cy="214.898" r="1.51433"/>
<circle cx="336.122" cy="184.387" r="1.51433"/>
<circle cx="340.657" cy="214.898" r="1.51433"/>
<circle cx="345.193" cy="214.898" r="1.51433"/>
<circle cx="349.728" cy="184.387" r="1.51433"/>
<circle cx="354.264" cy="214.898" r="1.51433"/>
<circle cx="358.799" cy="222.526" r="1.51433"/>
<circle cx="363.335" cy="153.876" r="1.51433"/>
<circle cx="367.87" cy="207.27" r="1.51433"/>
<circle cx="372.406" cy="291.176" r="1.51433"/>
<circle cx="376.941" cy="237.781" r="1.51433"/>
<circle cx="381.476" cy="283.548" r="1.51433"/>
<circle cx="386.012" cy="253.037" r="1.51433"/>
<circle cx="390.547" cy="268.293" r="1.51433"/>
<circle cx="395.083" cy="275.92" r="1.51433"/>
<circle cx="399.618" cy="245.409" r="1.51433"/>
<circle cx="404.154" cy="306.432" r="1.51433"/>
<circle cx="408.689" cy="298.804" r="1.51433"/>
<circle cx="413.224" cy="283.548" r="1.51433"/>
<circle cx="417.76" cy="283.548" r="1.51433"/>
<circle cx="422.295" cy="314.059" r="1.51433"/>
<circle cx="426.831" cy="298.804" r="1.51433"/>
<circle cx="431.366" cy="314.059" r="1.51433"/>
<circle cx="435.902" cy="321.687" r="1.51433"/>
<circle cx="440.437" cy="291.176" r="1.51433"/>
<circle cx="444.972" cy="314.059" r="1.51433"/>
<circle cx="449.508" cy="306.432" r="1.51433"/>
<circle cx="454.043" cy="329.315" r="1.51433"/>
<circle cx="458.579" cy="306.432" r="1.51433"/>
<circle cx="463.114" cy="321.687" r="1.51433"/>
<circle cx="467.65" cy="314.059" r="1.51433"/>
<circle cx="472.185" cy="321.687" r="1.51433"/>
<circle cx="476.72" cy="329.315" r="1.51433"/>
<circle cx="481.256" cy="321.687" r="1.51433"/>
<circle cx="485.791" cy="321.687" r="1.51433"/>
<circle cx="490.327" cy="329.315" r="1.51433"/>
<circle cx="494.862" cy="329.315" r="1.51433"/>
<circle cx="499.398" cy="314.059" r="1.51433"/>
<circle cx="503.933" cy="314.059" r="1.51433"/>
<circle cx="508.469" cy="321.687" r="1.51433"/>
</g>
<path d="M57.1929,327.431z" fill="none" stroke="#660066" stroke-width="2"/>
<path d="M57.1929,327.431l 4.53543, -0.373719l 4.53543, -0.438004l 4.53543, -0.511263l 4.53543, -0.594343l 4.53543, -0.688094l 4.53543, -0.793355l 4.53543, -0.910934l 4.53543, -1.04159l 4.53543, -1.186l 4.53543, -1.34474l 4.53543, -1.51826l 4.53543,
 -1.70685l 4.53543, -1.91061l 4.53543, -2.12942l 4.53543, -2.36288l 4.53543, -2.61035l 4.53543, -2.87086l 4.53543, -3.1431l 4.53543, -3.42543l 4.53543, -3.71582l 4.53543, -4.01189l 4.53543, -4.31089l 4.53543, -4.60969l 4.53543, -4.90486l 4.53543,
 -5.19262l 4.53543, -5.46893l 4.53543, -5.72956l 4.53543, -5.97007l 4.53543, -6.18596l 4.53543, -6.37272l 4.53543, -6.52589l 4.53543, -6.64118l 4.53543, -6.71455l 4.53543, -6.74232l 4.53543, -6.72123l 4.53543, -6.64856l 4.53543, -6.52219l 4.53543,
 -6.34072l 4.53543, -6.10346l 4.53543, -5.81054l 4.53543, -5.46292l 4.53543, -5.06239l 4.53543, -4.61162l 4.53543, -4.11408l 4.53543, -3.57404l 4.53543, -2.9965l 4.53543, -2.38711l 4.53543, -1.75208l 4.53543, -1.09809l 4.53543, -0.43216l 4.53543,
 0.238489l 4.53543, 0.906536l 4.53543, 1.56471l 4.53543, 2.20592l 4.53543, 2.82338l 4.53543, 3.41074l 4.53543, 3.96216l 4.53543, 4.47245l 4.53543, 4.93713l 4.53543, 5.35249l 4.53543, 5.71563l 4.53543, 6.0245l 4.53543, 6.27789l 4.53543, 6.47545l
 4.53543, 6.61763l 4.53543, 6.70563l 4.53543, 6.74137l 4.53543, 6.72742l 4.53543, 6.66686l 4.53543, 6.56329l 4.53543, 6.42063l 4.53543, 6.24313l 4.53543, 6.0352l 4.53543, 5.80133l 4.53543, 5.54607l 4.53543, 5.27384l 4.53543, 4.98896l 4.53543,
 4.69554l 4.53543, 4.39741l 4.53543, 4.09814l 4.53543, 3.80092l 4.53543, 3.50863l 4.53543, 3.22375l 4.53543, 2.9484l 4.53543, 2.68436l 4.53543, 2.43301l 4.53543, 2.19541l 4.53543, 1.97232l 4.53543, 1.76419l 4.53543, 1.57121l 4.53543, 1.39335l
 4.53543, 1.23038l 4.53543, 1.08188l 4.53543, 0.94732l 4.53543, 0.826038l 4.53543, 0.717298l 4.53543, 0.620305l 4.53543, 0.534228l 4.53543, 0.458218l 4.53543, 0.391426" fill="none" stroke="#660066" stroke-width="2"/>
<path d="M57.1929,330.078h 453.543" fill="none" stroke="black"/>
<path d="M132.783,309.54v 20.5382" fill="none" stroke="black"/>
<path d="M170.579,319.809v 10.2691" fill="none" stroke="black"/>
<path d="M208.374,319.809v 10.2691" fill="none" stroke="black"/>
<path d="M246.169,319.809v 10.2691" fill="none" stroke="black"/>
<path d="M283.965,309.54v 20.5382" fill="none" stroke="black"/>
<path d="M321.76,319.809v 10.2691" fill="none" stroke="black"/>
<path d="M359.555,319.809v 10.2691" fill="none" stroke="black"/>
<path d="M397.35,319.809v 10.2691" fill="none" stroke="black"/>
<path d="M435.146,309.54v 20.5382" fill="none" stroke="black"/>
<path d="M132.783,309.54v 20.5382" fill="none" stroke="black"/>
<path d="M94.9882,319.809v 10.2691" fill="none" stroke="black"/>
<path d="M57.1929,319.809v 10.2691" fill="none" stroke="black"/>
<path d="M435.146,309.54v 20.5382" fill="none" stroke="black"/>
<path d="M472.941,319.809v 10.2691" fill="none" stroke="black"/>
<path d="M57.1929,330.078v -293.402" fill="none" stroke="black"/>
<path d="M70.7992,329.315h -13.6063" fill="none" stroke="black"/>
<path d="M63.9961,314.059h -6.80315" fill="none" stroke="black"/>
<path d="M63.9961,298.804h -6.80315" fill="none" stroke="black"/>
<path d="M63.9961,283.548h -6.80315" fill="none" stroke="black"/>
<path d="M63.9961,268.293h -6.80315" fill="none" stroke="black"/>
<path d="M70.7992,253.037h -13.6063" fill="none" stroke="black"/>
<path d="M63.9961,237.781h -6.80315" fill="none" stroke="black"/>
<path d="M63.9961,222.526h -6.80315" fill="none" stroke="black"/>
<path d="M63.9961,207.27h -6.80315" fill="none" stroke="black"/>
<path d="M63.9961,192.015h -6.80315" fill="none" stroke="black"/>
<path d="M70.7992,176.759h -13.6063" fill="none" stroke="black"/>
<path d="M63.9961,161.504h -6.80315" fill="none" stroke="black"/>
<path d="M63.9961,146.248h -6.80315" fill="none" stroke="black"/>
<path d="M63.9961,130.992h -6.80315" fill="none" stroke="black"/>
<path d="M63.9961,115.737h -6.80315" fill="none" stroke="black"/>
<path d="M70.7992,100.481h -13.6063" fill="none" stroke="black"/>
<path d="M70.7992,329.315h -13.6063" fill="none" stroke="black"/>
<path d="M70.7992,100.481h -13.6063" fill="none" stroke="black"/>
<path d="M63.9961,85.2258h -6.80315" fill="none" stroke="black"/>
<path d="M63.9961,69.9702h -6.80315" fill="none" stroke="black"/>
<path d="M63.9961,54.7146h -6.80315" fill="none" stroke="black"/>
<path d="M63.9961,39.4591h -6.80315" fill="none" stroke="black"/>
<text xml:space="preserve" x="434.925" y="67.1986" fill="black" font-size="13.9588" font-family="Helvetica"> 0.032 MeV</text>
<text xml:space="preserve" x="427.353" y="67.1986" fill="black" font-size="13.9588" font-family="Times">&#0177;</text>
<text xml:space="preserve" x="338.859" y="67.1986" fill="black" font-size="13.9588" font-family="Helvetica">Mean = 0.009 </text>
<text xml:space="preserve" x="439.657" y="102.691" fill="black" font-size="13.9588" font-family="Helvetica"> 0.024 MeV</text>
<text xml:space="preserve" x="432.085" y="102.691" fill="black" font-size="13.9588" font-family="Times">&#0177;</text>
<text xml:space="preserve" x="338.859" y="102.691" fill="black" font-size="13.9588" font-family="Helvetica">Sigma = 0.994 </text></svg>
